<svg width="115" height="22" viewBox="0 0 115 22" fill="none" xmlns="http://www.w3.org/2000/svg">
<path d="M5 17V10M19 8V16C19 17.3261 18.4732 18.5979 17.5355 19.5355C16.5979 20.4732 15.3261 21 14 21H6C4.67392 21 3.40215 20.4732 2.46447 19.5355C1.52678 18.5979 1 17.3261 1 16V8C1 6.67392 1.52678 5.40215 2.46447 4.46447C3.40215 3.52678 4.67392 3 6 3H14C15.3261 3 16.5979 3.52678 17.5355 4.46447C18.4732 5.40215 19 6.67392 19 8Z" stroke="#525151" stroke-linecap="round" stroke-linejoin="round"/>
<path d="M9 17V13.75M9 13.75V10M9 13.75C9 10 15 10 15 13.75V17M5 7.01002L5.01 6.99902" stroke="#525151" stroke-linecap="round" stroke-linejoin="round"/>
<path d="M42.5967 4.11377C44.6065 3.70986 46.1364 4.43773 47.0234 5.32861L48.8154 4.99365C49.003 4.95852 49.1971 4.97797 49.374 5.04932C49.5509 5.12067 49.7038 5.24167 49.8145 5.39697C49.925 5.55226 49.9884 5.73591 49.998 5.92627C50.0077 6.11681 49.9626 6.30641 49.8682 6.47217L48.1484 9.49365C48.3054 13.8545 47.0936 16.8986 44.5098 18.9956C43.1398 20.1076 41.1774 20.7391 39.0244 20.9341C36.8546 21.13 34.4017 20.8931 31.9639 20.1812C31.7556 20.1204 31.5722 19.9936 31.4424 19.8198C31.3125 19.646 31.2424 19.4343 31.2432 19.2173C31.244 19.0003 31.3161 18.7896 31.4473 18.6167C31.5784 18.4439 31.762 18.3185 31.9707 18.2593C33.1967 17.9103 34.1306 17.6085 34.9736 17.0815C33.7747 16.4456 32.8916 15.6135 32.2666 14.6655C31.3988 13.3477 31.0767 11.8781 31.0127 10.5532C30.9487 9.22822 31.1398 7.99975 31.3418 7.11475C31.4568 6.60981 31.5904 6.10357 31.7754 5.61963C31.8406 5.44917 31.9516 5.30005 32.0957 5.18799C32.2399 5.07587 32.4113 5.00508 32.5928 4.98389C32.7738 4.96289 32.9573 4.99131 33.123 5.06689C33.2888 5.14244 33.4304 5.26231 33.5332 5.4126C35.0092 7.5716 36.782 8.47032 38.749 8.67432C38.845 7.83332 39.072 7.00202 39.499 6.27002C40.125 5.19607 41.1427 4.40576 42.5967 4.11377ZM45.8154 6.98877C45.4623 6.48078 44.5181 5.76674 42.9893 6.07471C42.0974 6.25374 41.5646 6.69493 41.2256 7.27686C40.8646 7.89686 40.6895 8.74019 40.6895 9.72119C40.6894 9.9863 40.584 10.2408 40.3965 10.4282C40.209 10.6156 39.9546 10.7212 39.6895 10.7212C37.3235 10.7212 35.0717 10.0177 33.1768 8.1167C33.0335 8.88786 32.9772 9.67283 33.0088 10.4565C33.0618 11.5425 33.3205 12.6319 33.9355 13.5649C34.5405 14.4819 35.5354 15.3221 37.1992 15.8501C37.3622 15.9018 37.51 15.9939 37.627 16.1187C37.744 16.2434 37.827 16.3969 37.8682 16.563C37.9092 16.7289 37.9065 16.903 37.8613 17.0679C37.8161 17.2327 37.7293 17.3836 37.6094 17.5054C37.0766 18.0521 36.4724 18.5242 35.8135 18.9097C36.8735 19.0197 37.8958 19.0279 38.8438 18.9419C40.7637 18.7679 42.2931 18.2189 43.249 17.4419C45.2618 15.81 46.3386 13.3759 46.1387 9.29834C46.1047 8.62837 46.7515 7.90495 47.0635 7.35596C46.5925 7.44393 46.1204 7.42774 45.8154 6.98877Z" fill="#525151"/>
<path d="M42.5967 4.11377C44.6065 3.70986 46.1364 4.43773 47.0234 5.32861L48.8154 4.99365C49.003 4.95852 49.1971 4.97797 49.374 5.04932C49.5509 5.12067 49.7038 5.24167 49.8145 5.39697C49.925 5.55226 49.9884 5.73591 49.998 5.92627C50.0077 6.11681 49.9626 6.30641 49.8682 6.47217L48.1484 9.49365C48.3054 13.8545 47.0936 16.8986 44.5098 18.9956C43.1398 20.1076 41.1774 20.7391 39.0244 20.9341C36.8546 21.13 34.4017 20.8931 31.9639 20.1812C31.7556 20.1204 31.5722 19.9936 31.4424 19.8198C31.3125 19.646 31.2424 19.4343 31.2432 19.2173C31.244 19.0003 31.3161 18.7896 31.4473 18.6167C31.5784 18.4439 31.762 18.3185 31.9707 18.2593C33.1967 17.9103 34.1306 17.6085 34.9736 17.0815C33.7747 16.4456 32.8916 15.6135 32.2666 14.6655C31.3988 13.3477 31.0767 11.8781 31.0127 10.5532C30.9487 9.22822 31.1398 7.99975 31.3418 7.11475C31.4568 6.60981 31.5904 6.10357 31.7754 5.61963C31.8406 5.44917 31.9516 5.30005 32.0957 5.18799C32.2399 5.07587 32.4113 5.00508 32.5928 4.98389C32.7738 4.96289 32.9573 4.99131 33.123 5.06689C33.2888 5.14244 33.4304 5.26231 33.5332 5.4126C35.0092 7.5716 36.782 8.47032 38.749 8.67432C38.845 7.83332 39.072 7.00202 39.499 6.27002C40.125 5.19607 41.1427 4.40576 42.5967 4.11377ZM45.8154 6.98877C45.4623 6.48078 44.5181 5.76674 42.9893 6.07471C42.0974 6.25374 41.5646 6.69493 41.2256 7.27686C40.8646 7.89686 40.6895 8.74019 40.6895 9.72119C40.6894 9.9863 40.584 10.2408 40.3965 10.4282C40.209 10.6156 39.9546 10.7212 39.6895 10.7212C37.3235 10.7212 35.0717 10.0177 33.1768 8.1167C33.0335 8.88786 32.9772 9.67283 33.0088 10.4565C33.0618 11.5425 33.3205 12.6319 33.9355 13.5649C34.5405 14.4819 35.5354 15.3221 37.1992 15.8501C37.3622 15.9018 37.51 15.9939 37.627 16.1187C37.744 16.2434 37.827 16.3969 37.8682 16.563C37.9092 16.7289 37.9065 16.903 37.8613 17.0679C37.8161 17.2327 37.7293 17.3836 37.6094 17.5054C37.0766 18.0521 36.4724 18.5242 35.8135 18.9097C36.8735 19.0197 37.8958 19.0279 38.8438 18.9419C40.7637 18.7679 42.2931 18.2189 43.249 17.4419C45.2618 15.81 46.3386 13.3759 46.1387 9.29834C46.1047 8.62837 46.7515 7.90495 47.0635 7.35596C46.5925 7.44393 46.1204 7.42774 45.8154 6.98877Z" stroke="#525151"/>
<path d="M78.9495 4.04016C77.5605 2.65176 75.791 1.70642 73.8647 1.32369C71.9384 0.94096 69.9419 1.13802 68.1276 1.88996C66.3133 2.6419 64.7627 3.91495 63.6719 5.54811C62.5812 7.18128 61.9991 9.10123 61.9995 11.0652C61.9995 13.6992 63.0455 16.2255 64.9076 18.0885C66.7697 19.9515 69.2955 20.9988 71.9295 21.0002C73.233 21.0002 74.5238 20.7454 75.7295 20.2502C76.9311 19.7427 78.0242 19.0094 78.9495 18.0902C79.8722 17.1677 80.604 16.0725 81.1034 14.8671C81.6027 13.6618 81.8597 12.3699 81.8597 11.0652C81.8597 9.76047 81.6027 8.46855 81.1034 7.26319C80.604 6.05784 79.8722 4.96264 78.9495 4.04016ZM78.2495 17.3802C76.8196 18.8163 74.9433 19.7227 72.9295 19.9502V13.3902H74.8095C75.0747 13.3902 75.3291 13.2848 75.5166 13.0973C75.7042 12.9097 75.8095 12.6554 75.8095 12.3902C75.8095 12.1249 75.7042 11.8706 75.5166 11.6831C75.3291 11.4955 75.0747 11.3902 74.8095 11.3902H72.9295V8.65017C72.9295 8.38495 73.0349 8.13059 73.2224 7.94306C73.4099 7.75552 73.6643 7.65017 73.9295 7.65017H75.1295C75.3947 7.65017 75.6491 7.54481 75.8366 7.35727C76.0242 7.16974 76.1295 6.91538 76.1295 6.65017C76.1295 6.38495 76.0242 6.13059 75.8366 5.94306C75.6491 5.75552 75.3947 5.65017 75.1295 5.65017H73.4295C72.7665 5.65017 72.1306 5.91356 71.6617 6.3824C71.1929 6.85124 70.9295 7.48712 70.9295 8.15017V11.3902H69.0595C68.7943 11.3902 68.5399 11.4955 68.3524 11.6831C68.1649 11.8706 68.0595 12.1249 68.0595 12.3902C68.0595 12.6554 68.1649 12.9097 68.3524 13.0973C68.5399 13.2848 68.7943 13.3902 69.0595 13.3902H70.9295V19.9502C69.0724 19.7383 67.3288 18.9483 65.945 17.6918C64.5611 16.4353 63.607 14.7759 63.2174 12.9478C62.8278 11.1197 63.0224 9.21535 63.7736 7.50382C64.5249 5.79229 65.7949 4.36005 67.4043 3.40939C69.0136 2.45872 70.881 2.0377 72.7425 2.20578C74.6041 2.37387 76.3658 3.12256 77.7789 4.34611C79.1919 5.56966 80.1848 7.20623 80.6174 9.02464C81.0499 10.8431 80.9003 12.7514 80.1895 14.4802C79.736 15.5629 79.0772 16.5477 78.2495 17.3802Z" fill="#525151"/>
<path d="M103.86 21C109.383 21 113.86 16.5228 113.86 11C113.86 5.47715 109.383 1 103.86 1C98.337 1 93.8599 5.47715 93.8599 11C93.8599 16.5228 98.337 21 103.86 21Z" stroke="#525151" stroke-linecap="round" stroke-linejoin="round"/>
<path d="M103.86 11H108.86C108.86 12.1567 108.458 13.2776 107.724 14.1717C106.99 15.0658 105.969 15.6776 104.834 15.9031C103.7 16.1286 102.522 15.9537 101.502 15.4082C100.482 14.8628 99.6827 13.9805 99.2402 12.9117C98.7977 11.8429 98.7394 10.6538 99.0754 9.54688C99.4113 8.43998 100.121 7.4838 101.083 6.84128C102.045 6.19875 103.199 5.90963 104.351 6.02318C105.502 6.13672 106.578 6.6459 107.396 7.46396" stroke="#525151" stroke-linecap="round" stroke-linejoin="round"/>
</svg>
