<svg width="18" height="20" viewBox="0 0 18 20" fill="none" xmlns="http://www.w3.org/2000/svg">
<path d="M16.5 1.9375H14.0625V1C14.0625 0.850816 14.0032 0.707742 13.8977 0.602252C13.7923 0.496763 13.6492 0.4375 13.5 0.4375C13.3508 0.4375 13.2077 0.496763 13.1023 0.602252C12.9968 0.707742 12.9375 0.850816 12.9375 1V1.9375H5.0625V1C5.0625 0.850816 5.00324 0.707742 4.89775 0.602252C4.79226 0.496763 4.64918 0.4375 4.5 0.4375C4.35082 0.4375 4.20774 0.496763 4.10225 0.602252C3.99676 0.707742 3.9375 0.850816 3.9375 1V1.9375H1.5C1.1519 1.9375 0.818064 2.07578 0.571922 2.32192C0.325781 2.56806 0.1875 2.9019 0.1875 3.25V18.25C0.1875 18.5981 0.325781 18.9319 0.571922 19.1781C0.818064 19.4242 1.1519 19.5625 1.5 19.5625H16.5C16.8481 19.5625 17.1819 19.4242 17.4281 19.1781C17.6742 18.9319 17.8125 18.5981 17.8125 18.25V3.25C17.8125 2.9019 17.6742 2.56806 17.4281 2.32192C17.1819 2.07578 16.8481 1.9375 16.5 1.9375ZM1.5 3.0625H3.9375V4C3.9375 4.14918 3.99676 4.29226 4.10225 4.39775C4.20774 4.50324 4.35082 4.5625 4.5 4.5625C4.64918 4.5625 4.79226 4.50324 4.89775 4.39775C5.00324 4.29226 5.0625 4.14918 5.0625 4V3.0625H12.9375V4C12.9375 4.14918 12.9968 4.29226 13.1023 4.39775C13.2077 4.50324 13.3508 4.5625 13.5 4.5625C13.6492 4.5625 13.7923 4.50324 13.8977 4.39775C14.0032 4.29226 14.0625 4.14918 14.0625 4V3.0625H16.5C16.5497 3.0625 16.5974 3.08225 16.6326 3.11742C16.6677 3.15258 16.6875 3.20027 16.6875 3.25V6.4375H1.3125V3.25C1.3125 3.20027 1.33225 3.15258 1.36742 3.11742C1.40258 3.08225 1.45027 3.0625 1.5 3.0625ZM16.5 18.4375H1.5C1.45027 18.4375 1.40258 18.4177 1.36742 18.3826C1.33225 18.3474 1.3125 18.2997 1.3125 18.25V7.5625H16.6875V18.25C16.6875 18.2997 16.6677 18.3474 16.6326 18.3826C16.5974 18.4177 16.5497 18.4375 16.5 18.4375ZM9.9375 11.125C9.9375 11.3104 9.88252 11.4917 9.7795 11.6458C9.67649 11.8 9.53007 11.9202 9.35876 11.9911C9.18746 12.0621 8.99896 12.0807 8.8171 12.0445C8.63525 12.0083 8.4682 11.919 8.33709 11.7879C8.20598 11.6568 8.11669 11.4898 8.08051 11.3079C8.04434 11.126 8.06291 10.9375 8.13386 10.7662C8.20482 10.5949 8.32498 10.4485 8.47915 10.3455C8.63332 10.2425 8.81458 10.1875 9 10.1875C9.24864 10.1875 9.4871 10.2863 9.66291 10.4621C9.83873 10.6379 9.9375 10.8764 9.9375 11.125ZM14.0625 11.125C14.0625 11.3104 14.0075 11.4917 13.9045 11.6458C13.8015 11.8 13.6551 11.9202 13.4838 11.9911C13.3125 12.0621 13.124 12.0807 12.9421 12.0445C12.7602 12.0083 12.5932 11.919 12.4621 11.7879C12.331 11.6568 12.2417 11.4898 12.2055 11.3079C12.1693 11.126 12.1879 10.9375 12.2589 10.7662C12.3298 10.5949 12.45 10.4485 12.6042 10.3455C12.7583 10.2425 12.9396 10.1875 13.125 10.1875C13.3736 10.1875 13.6121 10.2863 13.7879 10.4621C13.9637 10.6379 14.0625 10.8764 14.0625 11.125ZM5.8125 14.875C5.8125 15.0604 5.75752 15.2417 5.6545 15.3958C5.55149 15.55 5.40507 15.6702 5.23377 15.7411C5.06246 15.8121 4.87396 15.8307 4.6921 15.7945C4.51025 15.7583 4.3432 15.669 4.21209 15.5379C4.08098 15.4068 3.99169 15.2398 3.95551 15.0579C3.91934 14.876 3.93791 14.6875 4.00886 14.5162C4.07982 14.3449 4.19998 14.1985 4.35415 14.0955C4.50832 13.9925 4.68958 13.9375 4.875 13.9375C5.12364 13.9375 5.3621 14.0363 5.53791 14.2121C5.71373 14.3879 5.8125 14.6264 5.8125 14.875ZM9.9375 14.875C9.9375 15.0604 9.88252 15.2417 9.7795 15.3958C9.67649 15.55 9.53007 15.6702 9.35876 15.7411C9.18746 15.8121 8.99896 15.8307 8.8171 15.7945C8.63525 15.7583 8.4682 15.669 8.33709 15.5379C8.20598 15.4068 8.11669 15.2398 8.08051 15.0579C8.04434 14.876 8.06291 14.6875 8.13386 14.5162C8.20482 14.3449 8.32498 14.1985 8.47915 14.0955C8.63332 13.9925 8.81458 13.9375 9 13.9375C9.24864 13.9375 9.4871 14.0363 9.66291 14.2121C9.83873 14.3879 9.9375 14.6264 9.9375 14.875ZM14.0625 14.875C14.0625 15.0604 14.0075 15.2417 13.9045 15.3958C13.8015 15.55 13.6551 15.6702 13.4838 15.7411C13.3125 15.8121 13.124 15.8307 12.9421 15.7945C12.7602 15.7583 12.5932 15.669 12.4621 15.5379C12.331 15.4068 12.2417 15.2398 12.2055 15.0579C12.1693 14.876 12.1879 14.6875 12.2589 14.5162C12.3298 14.3449 12.45 14.1985 12.6042 14.0955C12.7583 13.9925 12.9396 13.9375 13.125 13.9375C13.3736 13.9375 13.6121 14.0363 13.7879 14.2121C13.9637 14.3879 14.0625 14.6264 14.0625 14.875Z" fill="white"/>
</svg>
