<svg width="18" height="20" viewBox="0 0 18 20" fill="none" xmlns="http://www.w3.org/2000/svg">
<path d="M16.6875 1.71484H14.25V0.777344C14.25 0.628159 14.1907 0.485085 14.0852 0.379596C13.9798 0.274107 13.8367 0.214844 13.6875 0.214844C13.5383 0.214844 13.3952 0.274107 13.2898 0.379596C13.1843 0.485085 13.125 0.628159 13.125 0.777344V1.71484H5.25V0.777344C5.25 0.628159 5.19074 0.485085 5.08525 0.379596C4.97976 0.274107 4.83668 0.214844 4.6875 0.214844C4.53832 0.214844 4.39524 0.274107 4.28975 0.379596C4.18426 0.485085 4.125 0.628159 4.125 0.777344V1.71484H1.6875C1.3394 1.71484 1.00556 1.85312 0.759422 2.09927C0.513281 2.34541 0.375 2.67925 0.375 3.02734V18.0273C0.375 18.3754 0.513281 18.7093 0.759422 18.9554C1.00556 19.2016 1.3394 19.3398 1.6875 19.3398H16.6875C17.0356 19.3398 17.3694 19.2016 17.6156 18.9554C17.8617 18.7093 18 18.3754 18 18.0273V3.02734C18 2.67925 17.8617 2.34541 17.6156 2.09927C17.3694 1.85312 17.0356 1.71484 16.6875 1.71484ZM1.6875 2.83984H4.125V3.77734C4.125 3.92653 4.18426 4.0696 4.28975 4.17509C4.39524 4.28058 4.53832 4.33984 4.6875 4.33984C4.83668 4.33984 4.97976 4.28058 5.08525 4.17509C5.19074 4.0696 5.25 3.92653 5.25 3.77734V2.83984H13.125V3.77734C13.125 3.92653 13.1843 4.0696 13.2898 4.17509C13.3952 4.28058 13.5383 4.33984 13.6875 4.33984C13.8367 4.33984 13.9798 4.28058 14.0852 4.17509C14.1907 4.0696 14.25 3.92653 14.25 3.77734V2.83984H16.6875C16.7372 2.83984 16.7849 2.8596 16.8201 2.89476C16.8552 2.92992 16.875 2.97762 16.875 3.02734V6.21484H1.5V3.02734C1.5 2.97762 1.51975 2.92992 1.55492 2.89476C1.59008 2.8596 1.63777 2.83984 1.6875 2.83984ZM16.6875 18.2148H1.6875C1.63777 18.2148 1.59008 18.1951 1.55492 18.1599C1.51975 18.1248 1.5 18.0771 1.5 18.0273V7.33984H16.875V18.0273C16.875 18.0771 16.8552 18.1248 16.8201 18.1599C16.7849 18.1951 16.7372 18.2148 16.6875 18.2148ZM10.125 10.9023C10.125 11.0878 10.07 11.269 9.967 11.4232C9.86399 11.5774 9.71757 11.6975 9.54626 11.7685C9.37496 11.8394 9.18646 11.858 9.0046 11.8218C8.82275 11.7857 8.6557 11.6964 8.52459 11.5653C8.39348 11.4341 8.30419 11.2671 8.26801 11.0852C8.23184 10.9034 8.25041 10.7149 8.32136 10.5436C8.39232 10.3723 8.51248 10.2259 8.66665 10.1228C8.82082 10.0198 9.00208 9.96484 9.1875 9.96484C9.43614 9.96484 9.6746 10.0636 9.85041 10.2394C10.0262 10.4152 10.125 10.6537 10.125 10.9023ZM14.25 10.9023C14.25 11.0878 14.195 11.269 14.092 11.4232C13.989 11.5774 13.8426 11.6975 13.6713 11.7685C13.5 11.8394 13.3115 11.858 13.1296 11.8218C12.9477 11.7857 12.7807 11.6964 12.6496 11.5653C12.5185 11.4341 12.4292 11.2671 12.393 11.0852C12.3568 10.9034 12.3754 10.7149 12.4464 10.5436C12.5173 10.3723 12.6375 10.2259 12.7917 10.1228C12.9458 10.0198 13.1271 9.96484 13.3125 9.96484C13.5611 9.96484 13.7996 10.0636 13.9754 10.2394C14.1512 10.4152 14.25 10.6537 14.25 10.9023ZM6 14.6523C6 14.8378 5.94502 15.019 5.842 15.1732C5.73899 15.3274 5.59257 15.4475 5.42127 15.5185C5.24996 15.5894 5.06146 15.608 4.8796 15.5718C4.69775 15.5357 4.5307 15.4464 4.39959 15.3153C4.26848 15.1841 4.17919 15.0171 4.14301 14.8352C4.10684 14.6534 4.12541 14.4649 4.19636 14.2936C4.26732 14.1223 4.38748 13.9759 4.54165 13.8728C4.69582 13.7698 4.87708 13.7148 5.0625 13.7148C5.31114 13.7148 5.5496 13.8136 5.72541 13.9894C5.90123 14.1652 6 14.4037 6 14.6523ZM10.125 14.6523C10.125 14.8378 10.07 15.019 9.967 15.1732C9.86399 15.3274 9.71757 15.4475 9.54626 15.5185C9.37496 15.5894 9.18646 15.608 9.0046 15.5718C8.82275 15.5357 8.6557 15.4464 8.52459 15.3153C8.39348 15.1841 8.30419 15.0171 8.26801 14.8352C8.23184 14.6534 8.25041 14.4649 8.32136 14.2936C8.39232 14.1223 8.51248 13.9759 8.66665 13.8728C8.82082 13.7698 9.00208 13.7148 9.1875 13.7148C9.43614 13.7148 9.6746 13.8136 9.85041 13.9894C10.0262 14.1652 10.125 14.4037 10.125 14.6523ZM14.25 14.6523C14.25 14.8378 14.195 15.019 14.092 15.1732C13.989 15.3274 13.8426 15.4475 13.6713 15.5185C13.5 15.5894 13.3115 15.608 13.1296 15.5718C12.9477 15.5357 12.7807 15.4464 12.6496 15.3153C12.5185 15.1841 12.4292 15.0171 12.393 14.8352C12.3568 14.6534 12.3754 14.4649 12.4464 14.2936C12.5173 14.1223 12.6375 13.9759 12.7917 13.8728C12.9458 13.7698 13.1271 13.7148 13.3125 13.7148C13.5611 13.7148 13.7996 13.8136 13.9754 13.9894C14.1512 14.1652 14.25 14.4037 14.25 14.6523Z" fill="#2E8CFE"/>
</svg>
