<svg width="64" height="65" viewBox="0 0 64 65" fill="none" xmlns="http://www.w3.org/2000/svg">
<g filter="url(#filter0_d_346_10883)">
<g filter="url(#filter1_d_346_10883)">
<circle cx="32" cy="29" r="28" fill="white"/>
<circle cx="32" cy="29" r="27.5" stroke="#E1E1E1"/>
</g>
<path d="M33.4669 21.1803C33.4669 20.9606 33.5542 20.7498 33.7096 20.5944C33.865 20.439 34.0757 20.3517 34.2955 20.3517H42.2374L39.2338 17.3467C39.0874 17.1896 39.0078 16.9818 39.0116 16.7672C39.0153 16.5525 39.1023 16.3477 39.2541 16.1959C39.4059 16.0441 39.6107 15.9571 39.8254 15.9533C40.0401 15.9495 40.2478 16.0292 40.4049 16.1756L44.824 20.5948C44.9791 20.7502 45.0663 20.9608 45.0663 21.1803C45.0663 21.3999 44.9791 21.6105 44.824 21.7659L40.4049 26.1851C40.2478 26.3315 40.0401 26.4112 39.8254 26.4074C39.6107 26.4036 39.4059 26.3166 39.2541 26.1648C39.1023 26.013 39.0153 25.8082 39.0116 25.5935C39.0078 25.3789 39.0874 25.1711 39.2338 25.014L42.2374 22.009H34.2955C34.0757 22.009 33.865 21.9217 33.7096 21.7663C33.5542 21.6109 33.4669 21.4001 33.4669 21.1803ZM45.0518 36.486C44.8143 38.2906 43.928 39.9469 42.5585 41.1457C41.1889 42.3445 39.4298 43.0037 37.6098 43.0002C26.7968 43.0002 18 34.2032 18 23.39C17.9965 21.5699 18.6557 19.8107 19.8545 18.4411C21.0532 17.0716 22.7096 16.1853 24.514 15.9477C24.9294 15.8972 25.35 15.9829 25.7126 16.1918C26.0751 16.4007 26.3601 16.7217 26.5247 17.1064L29.4386 23.6123C29.567 23.9066 29.6201 24.2282 29.5931 24.5482C29.5661 24.8681 29.4598 25.1763 29.2839 25.4449C29.2662 25.4723 29.2468 25.4985 29.2259 25.5236L26.3162 28.9844C26.2985 29.0203 26.2894 29.0597 26.2894 29.0997C26.2894 29.1397 26.2985 29.1792 26.3162 29.215C27.374 31.3818 29.6444 33.6343 31.8401 34.6907C31.8768 34.7075 31.9168 34.7154 31.9571 34.714C31.9973 34.7125 32.0367 34.7017 32.0721 34.6824L35.4817 31.7823C35.506 31.7611 35.5319 31.7418 35.559 31.7243C35.8266 31.5459 36.1344 31.4371 36.4547 31.4077C36.7749 31.3783 37.0974 31.4292 37.393 31.5559L43.9167 34.4794C44.2963 34.6477 44.6116 34.9336 44.8161 35.295C45.0205 35.6564 45.1032 36.074 45.0518 36.486ZM43.4099 36.2775C43.4145 36.2198 43.4009 36.162 43.3709 36.1125C43.3409 36.0629 43.2961 36.024 43.2428 36.0013L36.7177 33.0777C36.6817 33.0645 36.6433 33.0588 36.6051 33.0612C36.5668 33.0636 36.5294 33.0739 36.4953 33.0915L33.0885 35.9916C33.0636 36.0124 33.0374 36.0317 33.0112 36.0496C32.7331 36.235 32.4118 36.3452 32.0786 36.3694C31.7453 36.3936 31.4114 36.331 31.1096 36.1877C28.5741 34.9628 26.0469 32.459 24.822 29.947C24.6779 29.6468 24.6138 29.3146 24.6358 28.9824C24.6578 28.6502 24.7653 28.3293 24.9477 28.0509C24.9655 28.0232 24.9853 27.9968 25.0071 27.9721L27.914 24.5072C27.9306 24.471 27.9392 24.4317 27.9392 24.3919C27.9392 24.3521 27.9306 24.3127 27.914 24.2766L25.0071 17.7706C24.9879 17.7184 24.9533 17.6732 24.908 17.6409C24.8626 17.6086 24.8086 17.5908 24.753 17.5897H24.7212C23.3167 17.7766 22.0282 18.4683 21.0963 19.5356C20.1644 20.603 19.6529 21.973 19.6572 23.39C19.6572 33.289 27.711 41.343 37.6098 41.343C39.0269 41.3473 40.3971 40.8356 41.4644 39.9034C42.5318 38.9712 43.2233 37.6823 43.4099 36.2775Z" fill="#2E8CFE"/>
</g>
<defs>
<filter id="filter0_d_346_10883" x="3" y="0" width="58" height="58" filterUnits="userSpaceOnUse" color-interpolation-filters="sRGB">
<feFlood flood-opacity="0" result="BackgroundImageFix"/>
<feColorMatrix in="SourceAlpha" type="matrix" values="0 0 0 0 0 0 0 0 0 0 0 0 0 0 0 0 0 0 127 0" result="hardAlpha"/>
<feOffset/>
<feGaussianBlur stdDeviation="0.5"/>
<feComposite in2="hardAlpha" operator="out"/>
<feColorMatrix type="matrix" values="0 0 0 0 0 0 0 0 0 0 0 0 0 0 0 0 0 0 0.1 0"/>
<feBlend mode="normal" in2="BackgroundImageFix" result="effect1_dropShadow_346_10883"/>
<feBlend mode="normal" in="SourceGraphic" in2="effect1_dropShadow_346_10883" result="shape"/>
</filter>
<filter id="filter1_d_346_10883" x="0" y="1" width="64" height="64" filterUnits="userSpaceOnUse" color-interpolation-filters="sRGB">
<feFlood flood-opacity="0" result="BackgroundImageFix"/>
<feColorMatrix in="SourceAlpha" type="matrix" values="0 0 0 0 0 0 0 0 0 0 0 0 0 0 0 0 0 0 127 0" result="hardAlpha"/>
<feOffset dy="4"/>
<feGaussianBlur stdDeviation="2"/>
<feComposite in2="hardAlpha" operator="out"/>
<feColorMatrix type="matrix" values="0 0 0 0 0 0 0 0 0 0 0 0 0 0 0 0 0 0 0.25 0"/>
<feBlend mode="normal" in2="BackgroundImageFix" result="effect1_dropShadow_346_10883"/>
<feBlend mode="normal" in="SourceGraphic" in2="effect1_dropShadow_346_10883" result="shape"/>
</filter>
</defs>
</svg>
