<svg width="24" height="25" viewBox="0 0 24 25" fill="none" xmlns="http://www.w3.org/2000/svg">
<path d="M12 22.1C6.708 22.1 2.4 17.792 2.4 12.5C2.4 7.208 6.708 2.9 12 2.9C17.292 2.9 21.6 7.208 21.6 12.5C21.6 17.792 17.292 22.1 12 22.1ZM12 0.5C5.364 0.5 0 5.864 0 12.5C0 19.136 5.364 24.5 12 24.5C18.636 24.5 24 19.136 24 12.5C24 5.864 18.636 0.5 12 0.5ZM15.108 7.7L12 10.808L8.892 7.7L7.2 9.392L10.308 12.5L7.2 15.608L8.892 17.3L12 14.192L15.108 17.3L16.8 15.608L13.692 12.5L16.8 9.392L15.108 7.7Z" fill="black"/>
</svg>
