<svg width="30" height="30" viewBox="0 0 30 30" fill="none" xmlns="http://www.w3.org/2000/svg">
<path d="M26.3906 15.6563L25.8281 7.17188L21.9375 9.5625C20.0156 9.23438 19.5 9.23438 18 8.48438C17.1094 8.0625 15.9844 8.34375 15.4219 8.67188C14.5781 7.78125 9.09375 9.09375 8.48438 9.375C6.84375 8.90625 4.40625 6.98438 4.40625 6.98438L3.60938 16.5938L4.6875 16.875C4.78125 17.2031 5.0625 18 5.0625 18C4.03125 19.3125 5.25 20.8594 6.42188 20.3438C5.90625 21.6563 7.26562 22.875 8.34375 22.0312C8.20312 23.25 9.46875 24.1406 10.4063 23.2969C9.98438 24.75 11.625 25.8281 12.6094 24.6562C13.3125 25.125 13.9688 25.5 14.5312 25.6875C15.5156 26.1094 16.5938 25.1719 16.4062 24C17.5312 25.3125 19.2188 24.0469 18.8438 22.5938C20.1094 23.5781 21.6562 21.9375 20.8594 20.4844C22.2656 21.2813 23.4844 19.125 22.125 17.7188L26.3906 15.6563Z" fill="#FFE1BD"/>
<path d="M6.51562 17.0156C7.21875 17.3437 7.6875 18.4219 6.9375 19.3594L6.60938 19.7344C6.23438 20.2031 5.85938 20.3438 5.48438 20.3438C5.76562 20.4844 6.09375 20.4844 6.42188 20.3438C6.46875 20.2031 6.5625 20.0156 6.70313 19.875L7.03125 19.5C7.21875 19.2656 7.45312 19.0781 7.64062 18.9844C8.01562 18 7.35937 17.0625 6.51562 17.0156ZM11.9062 21.6563C12.6562 21.8438 13.2188 22.8281 12.6562 23.9062L12.375 24.3281C12.0938 24.8438 11.7188 25.0781 11.3438 25.125C11.8594 25.2656 12.4219 25.0781 12.7969 24.375L13.0781 23.9531C13.7344 22.6406 12.8438 21.5625 11.9062 21.6563ZM8.57812 21.2813L9.32812 20.1094C9.28125 19.4531 8.71875 18.8906 8.15625 18.8438C8.85938 19.1719 9.32812 20.25 8.57812 21.1875L8.25 21.5625C7.875 22.0312 7.5 22.1719 7.07813 22.1719C7.45313 22.3594 7.875 22.3125 8.29688 22.0312C8.34375 21.7969 8.4375 21.5156 8.57812 21.2813ZM10.5938 19.1719C11.3438 19.4063 11.8594 20.4375 11.2031 21.4687L10.3125 22.875C9.98438 23.3906 9.60938 23.5781 9.23438 23.5781C9.70313 23.7187 10.3125 23.5781 10.7344 22.9219L11.625 21.5156C12.375 20.2969 11.5313 19.125 10.5938 19.1719ZM16.8281 20.3438C16.875 20.3438 17.4375 20.25 17.625 20.25C16.9219 19.5469 15.7969 20.1094 15.1406 19.7344C15.6094 20.5312 16.5937 20.3438 16.6875 20.3438L17.8125 21.7969C18.75 22.9688 18 24.3281 17.0156 24.4688C18.0469 24.7969 19.0781 23.7187 18.75 22.5469C18.7031 22.5 16.8281 20.3438 16.8281 20.3438ZM17.9531 17.625C17.9531 17.625 18.6562 17.4844 19.2656 17.4844C18.5625 16.9219 17.4844 17.4375 16.7812 16.9688C17.0625 17.5781 17.6719 17.5781 17.8594 17.5781L20.0156 20.0625C21 21.1875 20.2969 22.5469 19.3125 22.7812C20.4375 23.1094 21.5156 21.6562 20.8125 20.3906C20.3438 20.25 17.9531 17.625 17.9531 17.625Z" fill="#E6B796"/>
<path d="M16.4531 23.0156C15.75 22.4531 14.7656 22.875 14.3438 22.5938C14.5781 23.25 15.4687 23.1094 15.5156 23.1094C16.3125 24.3281 15.4688 25.5938 14.4844 25.6875C15.4688 26.1094 16.5469 25.1719 16.3594 24C16.3125 23.9531 15.6563 23.1094 15.6563 23.1094C15.75 23.0625 16.2656 23.0156 16.4531 23.0156ZM25.875 14.8594C25.875 14.8594 25.0781 16.5 21.9844 17.3906C21.5625 16.875 20.6719 15.8438 19.6406 14.9531C20.2969 14.8125 20.625 14.2969 21.1406 14.2031C20.9531 14.0156 20.2969 14.1094 19.7812 14.2969C18.8438 14.625 16.6875 13.125 16.6875 13.125L14.9062 13.3594C13.6406 14.5781 10.9219 15.2344 10.7812 13.3594C10.6875 12.0469 13.5469 11.1563 14.4375 10.3125C15.5625 9.23438 16.5469 7.875 18.375 8.8125C19.875 9.5625 20.4844 9.51563 22.5469 9.89063C23.25 10.0313 23.7188 10.3594 24.2344 11.0625C23.8125 10.0781 23.2031 9.65625 22.4531 9.51562L25.7344 7.96875L25.7812 7.17188L21.8906 9.375C20.1094 9.09375 19.4531 9.09375 18 8.39062C17.0625 7.92187 16.3125 8.0625 15.7031 8.4375C14.5781 7.78125 13.9219 7.92188 13.5 8.01563C12.1875 8.4375 10.0781 8.48438 8.20312 9.23438C8.53125 9.32813 8.85937 9.42188 9.09375 9.42188C10.9219 8.85938 12.8437 8.90625 13.7344 8.57812C14.0156 8.48437 14.5781 8.48437 15.1875 8.8125C14.8125 9.14062 14.4844 9.51563 14.1094 9.89063C13.2188 10.7344 10.5 11.9531 10.6875 13.5C10.7812 14.25 11.8125 16.2188 15.2344 14.0156L16.6875 13.8281C16.6875 13.8281 19.3594 15.0938 21.8437 18C22.8281 19.125 22.2188 20.3438 21.2344 20.625C22.5 20.8594 23.5781 19.0781 22.3594 17.8594L25.3125 16.2656L25.875 14.8594Z" fill="#E6B796"/>
<path d="M25.0312 7.64062L26.578 15.6563L25.3124 16.2188C24.6562 14.4844 23.6718 10.3125 23.9062 8.29688L25.0312 7.64062Z" fill="#2E8CFE"/>
<path d="M5.20313 17.8125C4.96875 17.25 4.82813 16.5 4.82813 16.5L3.65625 15.7031L3.5625 16.5938L4.59375 16.875C4.73438 17.3438 4.875 17.7188 5.0625 18L5.20313 17.8125Z" fill="#E6B796"/>
<path d="M2.85938 16.4531L5.39062 7.6875L6.5625 8.48438C6.75 9.79688 4.59375 15.7969 3.79688 16.6875L2.85938 16.4531Z" fill="#2E8CFE"/>
<path d="M24.9844 7.59375C24.6094 7.82813 25.9688 15.9375 26.5312 15.7031C28.3125 14.9062 29.1094 14.6719 29.1094 14.6719V5.01562C29.0625 5.01562 27.9844 5.8125 24.9844 7.59375ZM0.9375 4.21875V16.1719C0.9375 16.1719 1.78125 16.3125 2.85938 16.5469C3.46875 16.6875 5.67188 7.875 5.53125 7.73438C3.9375 6.65625 0.9375 4.21875 0.9375 4.21875Z" fill="#2E8CFE"/>
</svg>
