<svg width="20" height="20" viewBox="0 0 20 20" fill="none" xmlns="http://www.w3.org/2000/svg">
<path d="M9.5625 0C7.67122 0 5.82241 0.560831 4.24986 1.61157C2.67732 2.66231 1.45167 4.15577 0.727906 5.90309C0.00414312 7.65041 -0.185226 9.57311 0.183745 11.4281C0.552716 13.283 1.46346 14.9869 2.8008 16.3242C4.13814 17.6615 5.84201 18.5723 7.69695 18.9413C9.5519 19.3102 11.4746 19.1209 13.2219 18.3971C14.9692 17.6733 16.4627 16.4477 17.5134 14.8751C18.5642 13.3026 19.125 11.4538 19.125 9.5625C19.122 7.02728 18.1136 4.59675 16.3209 2.80408C14.5283 1.01141 12.0977 0.00297736 9.5625 0ZM17.2097 6H13.4241C12.9728 4.26082 12.1498 2.64016 11.0119 1.24969C12.3504 1.48571 13.6125 2.04061 14.6913 2.86745C15.7701 3.69429 16.6339 4.76876 17.2097 6ZM18 9.5625C18.0006 10.3882 17.8797 11.2095 17.6409 12H13.6697C13.9434 10.3865 13.9434 8.73847 13.6697 7.125H17.6409C17.8797 7.91547 18.0006 8.73678 18 9.5625ZM9.5625 17.7966C9.02092 17.2441 8.54323 16.6324 8.13844 15.9731C7.59219 15.0845 7.16777 14.1266 6.87657 13.125H12.2484C11.9572 14.1266 11.5328 15.0845 10.9866 15.9731C10.5818 16.6324 10.1041 17.2441 9.5625 17.7966ZM6.60469 12C6.29843 10.3894 6.29843 8.73557 6.60469 7.125H12.5203C12.8266 8.73557 12.8266 10.3894 12.5203 12H6.60469ZM1.125 9.5625C1.12437 8.73678 1.24536 7.91547 1.48407 7.125H5.45532C5.18156 8.73847 5.18156 10.3865 5.45532 12H1.48407C1.24536 11.2095 1.12437 10.3882 1.125 9.5625ZM9.5625 1.32844C10.1041 1.88091 10.5818 2.49257 10.9866 3.15188C11.5328 4.04046 11.9572 4.99841 12.2484 6H6.87657C7.16777 4.99841 7.59219 4.04046 8.13844 3.15188C8.54323 2.49257 9.02092 1.88091 9.5625 1.32844ZM8.11313 1.24969C6.97517 2.64016 6.1522 4.26082 5.70094 6H1.91532C2.4911 4.76876 3.35492 3.69429 4.43372 2.86745C5.51251 2.04061 6.77456 1.48571 8.11313 1.24969ZM1.91532 13.125H5.70094C6.1522 14.8642 6.97517 16.4848 8.11313 17.8753C6.77456 17.6393 5.51251 17.0844 4.43372 16.2576C3.35492 15.4307 2.4911 14.3562 1.91532 13.125ZM11.0091 17.8753C12.148 16.4851 12.972 14.8644 13.4241 13.125H17.2097C16.6339 14.3562 15.7701 15.4307 14.6913 16.2576C13.6125 17.0844 12.3504 17.6393 11.0119 17.8753H11.0091Z" fill="black"/>
</svg>
