<svg width="17" height="21" viewBox="0 0 17 21" fill="none" xmlns="http://www.w3.org/2000/svg">
<path d="M8.0625 4.6875C7.3579 4.6875 6.66913 4.89644 6.08328 5.28789C5.49743 5.67934 5.04082 6.23573 4.77118 6.88669C4.50154 7.53765 4.43099 8.25395 4.56845 8.94501C4.70591 9.63607 5.04521 10.2708 5.54343 10.7691C6.04166 11.2673 6.67643 11.6066 7.36749 11.744C8.05855 11.8815 8.77485 11.811 9.42581 11.5413C10.0768 11.2717 10.6332 10.8151 11.0246 10.2292C11.4161 9.64337 11.625 8.9546 11.625 8.25C11.625 7.30517 11.2497 6.39903 10.5816 5.73093C9.91347 5.06283 9.00733 4.6875 8.0625 4.6875ZM8.0625 10.6875C7.58041 10.6875 7.10914 10.5445 6.7083 10.2767C6.30745 10.0089 5.99503 9.62819 5.81054 9.18279C5.62606 8.7374 5.57778 8.2473 5.67184 7.77447C5.76589 7.30164 5.99804 6.86732 6.33893 6.52643C6.67982 6.18554 7.11414 5.95339 7.58697 5.85934C8.0598 5.76528 8.5499 5.81356 8.99529 5.99804C9.44069 6.18253 9.82137 6.49495 10.0892 6.8958C10.357 7.29664 10.5 7.76791 10.5 8.25C10.5 8.89647 10.2432 9.51645 9.78607 9.97357C9.32895 10.4307 8.70897 10.6875 8.0625 10.6875ZM8.0625 0.1875C5.92495 0.189981 3.87567 1.04022 2.36419 2.55169C0.852718 4.06317 0.00248119 6.11245 0 8.25C0 11.1478 1.34438 14.2256 3.88781 17.1506C5.03579 18.4773 6.3278 19.6722 7.74 20.7131C7.83453 20.7793 7.94712 20.8148 8.0625 20.8148C8.17788 20.8148 8.29047 20.7793 8.385 20.7131C9.7972 19.6722 11.0892 18.4773 12.2372 17.1506C14.7806 14.2256 16.125 11.1506 16.125 8.25C16.1225 6.11245 15.2723 4.06317 13.7608 2.55169C12.2493 1.04022 10.2 0.189981 8.0625 0.1875ZM8.0625 19.5478C6.65625 18.4622 1.125 13.8394 1.125 8.25C1.125 6.41006 1.85591 4.64548 3.15695 3.34445C4.45798 2.04341 6.22256 1.3125 8.0625 1.3125C9.90244 1.3125 11.667 2.04341 12.9681 3.34445C14.2691 4.64548 15 6.41006 15 8.25C15 13.8394 9.46875 18.4622 8.0625 19.5478Z" fill="#2E8CFE"/>
</svg>
