<svg width="64" height="65" viewBox="0 0 64 65" fill="none" xmlns="http://www.w3.org/2000/svg">
<g filter="url(#filter0_d_346_10899)">
<g filter="url(#filter1_d_346_10899)">
<circle cx="32" cy="29" r="28" fill="white"/>
<circle cx="32" cy="29" r="27.5" stroke="#E1E1E1"/>
</g>
<path d="M29.7091 21.9434C29.7091 21.4993 29.8435 21.0652 30.0952 20.696C30.3469 20.3267 30.7047 20.039 31.1233 19.869C31.5419 19.6991 32.0025 19.6546 32.4469 19.7413C32.8913 19.8279 33.2995 20.0417 33.6199 20.3557C33.9403 20.6697 34.1585 21.0698 34.2469 21.5054C34.3353 21.9409 34.2899 22.3924 34.1165 22.8026C33.9431 23.2129 33.6495 23.5636 33.2728 23.8103C32.896 24.057 32.4531 24.1887 32 24.1887C31.3924 24.1887 30.8097 23.9521 30.3801 23.5311C29.9505 23.11 29.7091 22.5389 29.7091 21.9434ZM21.8545 21.9434C21.8545 19.3062 22.9234 16.7771 24.8261 14.9124C26.7287 13.0476 29.3093 12 32 12C34.6907 12 37.2713 13.0476 39.1739 14.9124C41.0766 16.7771 42.1455 19.3062 42.1455 21.9434C42.1455 31.3752 32.882 36.6708 32.4909 36.8922C32.3417 36.9766 32.1723 37.0211 32 37.0211C31.8277 37.0211 31.6583 36.9766 31.5091 36.8922C31.118 36.6708 21.8545 31.3752 21.8545 21.9434ZM23.8182 21.9434C23.8182 29.0834 30.1689 33.7295 32 34.9195C33.8295 33.7295 40.1818 29.085 40.1818 21.9434C40.1818 19.8167 39.3198 17.777 37.7854 16.2732C36.251 14.7694 34.17 13.9245 32 13.9245C29.83 13.9245 27.749 14.7694 26.2146 16.2732C24.6802 17.777 23.8182 19.8167 23.8182 21.9434ZM44.1222 33.0912C44.0003 33.0429 43.8698 33.0191 43.7384 33.0211C43.607 33.0231 43.4773 33.051 43.3571 33.1031C43.2369 33.1551 43.1286 33.2303 43.0385 33.3242C42.9485 33.4181 42.8787 33.5287 42.8331 33.6495C42.7875 33.7703 42.7671 33.8989 42.7732 34.0276C42.7792 34.1563 42.8116 34.2824 42.8683 34.3986C42.9251 34.5148 43.005 34.6187 43.1035 34.704C43.2019 34.7894 43.3169 34.8545 43.4415 34.8955C46.3182 35.9363 48.0364 37.33 48.0364 38.6226C48.0364 41.2015 41.45 44.0755 32 44.0755C22.55 44.0755 15.9636 41.2015 15.9636 38.6226C15.9636 37.33 17.6818 35.9363 20.5585 34.8955C20.6831 34.8545 20.7981 34.7894 20.8965 34.704C20.995 34.6187 21.0749 34.5148 21.1317 34.3986C21.1884 34.2824 21.2208 34.1563 21.2268 34.0276C21.2329 33.8989 21.2125 33.7703 21.1669 33.6495C21.1213 33.5287 21.0515 33.4181 20.9615 33.3242C20.8714 33.2303 20.7631 33.1551 20.6429 33.1031C20.5227 33.051 20.393 33.0231 20.2616 33.0211C20.1302 33.0191 19.9997 33.0429 19.8778 33.0912C16.088 34.4625 14 36.4271 14 38.6226C14 40.7621 15.9931 42.693 19.6144 44.0562C22.9378 45.3104 27.3364 46 32 46C36.6636 46 41.0622 45.3104 44.3856 44.0562C48.0069 42.693 50 40.7621 50 38.6226C50 36.4271 47.912 34.4625 44.1222 33.0912Z" fill="#2E8CFE"/>
</g>
<defs>
<filter id="filter0_d_346_10899" x="3" y="0" width="58" height="58" filterUnits="userSpaceOnUse" color-interpolation-filters="sRGB">
<feFlood flood-opacity="0" result="BackgroundImageFix"/>
<feColorMatrix in="SourceAlpha" type="matrix" values="0 0 0 0 0 0 0 0 0 0 0 0 0 0 0 0 0 0 127 0" result="hardAlpha"/>
<feOffset/>
<feGaussianBlur stdDeviation="0.5"/>
<feComposite in2="hardAlpha" operator="out"/>
<feColorMatrix type="matrix" values="0 0 0 0 0 0 0 0 0 0 0 0 0 0 0 0 0 0 0.1 0"/>
<feBlend mode="normal" in2="BackgroundImageFix" result="effect1_dropShadow_346_10899"/>
<feBlend mode="normal" in="SourceGraphic" in2="effect1_dropShadow_346_10899" result="shape"/>
</filter>
<filter id="filter1_d_346_10899" x="0" y="1" width="64" height="64" filterUnits="userSpaceOnUse" color-interpolation-filters="sRGB">
<feFlood flood-opacity="0" result="BackgroundImageFix"/>
<feColorMatrix in="SourceAlpha" type="matrix" values="0 0 0 0 0 0 0 0 0 0 0 0 0 0 0 0 0 0 127 0" result="hardAlpha"/>
<feOffset dy="4"/>
<feGaussianBlur stdDeviation="2"/>
<feComposite in2="hardAlpha" operator="out"/>
<feColorMatrix type="matrix" values="0 0 0 0 0 0 0 0 0 0 0 0 0 0 0 0 0 0 0.25 0"/>
<feBlend mode="normal" in2="BackgroundImageFix" result="effect1_dropShadow_346_10899"/>
<feBlend mode="normal" in="SourceGraphic" in2="effect1_dropShadow_346_10899" result="shape"/>
</filter>
</defs>
</svg>
