<svg width="64" height="65" viewBox="0 0 64 65" fill="none" xmlns="http://www.w3.org/2000/svg">
<g filter="url(#filter0_d_346_10891)">
<g filter="url(#filter1_d_346_10891)">
<circle cx="32" cy="29" r="28" fill="white"/>
<circle cx="32" cy="29" r="27.5" stroke="#E1E1E1"/>
</g>
<path d="M47.0294 17H15.9706C15.7132 17 15.4663 17.1013 15.2843 17.2816C15.1023 17.462 15 17.7065 15 17.9615V39.7564C15 40.3514 15.2386 40.9221 15.6633 41.3429C16.088 41.7636 16.6641 42 17.2647 42H45.7353C46.3359 42 46.912 41.7636 47.3367 41.3429C47.7614 40.9221 48 40.3514 48 39.7564V17.9615C48 17.7065 47.8977 17.462 47.7157 17.2816C47.5337 17.1013 47.2868 17 47.0294 17ZM31.5 30.7596L18.465 18.9231H44.535L31.5 30.7596ZM27.2407 29.5L16.9412 38.8526V20.1474L27.2407 29.5ZM28.6772 30.8045L30.8529 32.7724C31.0319 32.9346 31.2656 33.0245 31.5081 33.0245C31.7506 33.0245 31.9843 32.9346 32.1632 32.7724L34.3309 30.8045L44.535 40.0769H18.4666L28.6772 30.8045ZM35.7593 29.5L46.0588 20.1474V38.8526L35.7593 29.5Z" fill="#2E8CFE"/>
</g>
<defs>
<filter id="filter0_d_346_10891" x="3" y="0" width="58" height="58" filterUnits="userSpaceOnUse" color-interpolation-filters="sRGB">
<feFlood flood-opacity="0" result="BackgroundImageFix"/>
<feColorMatrix in="SourceAlpha" type="matrix" values="0 0 0 0 0 0 0 0 0 0 0 0 0 0 0 0 0 0 127 0" result="hardAlpha"/>
<feOffset/>
<feGaussianBlur stdDeviation="0.5"/>
<feComposite in2="hardAlpha" operator="out"/>
<feColorMatrix type="matrix" values="0 0 0 0 0 0 0 0 0 0 0 0 0 0 0 0 0 0 0.1 0"/>
<feBlend mode="normal" in2="BackgroundImageFix" result="effect1_dropShadow_346_10891"/>
<feBlend mode="normal" in="SourceGraphic" in2="effect1_dropShadow_346_10891" result="shape"/>
</filter>
<filter id="filter1_d_346_10891" x="0" y="1" width="64" height="64" filterUnits="userSpaceOnUse" color-interpolation-filters="sRGB">
<feFlood flood-opacity="0" result="BackgroundImageFix"/>
<feColorMatrix in="SourceAlpha" type="matrix" values="0 0 0 0 0 0 0 0 0 0 0 0 0 0 0 0 0 0 127 0" result="hardAlpha"/>
<feOffset dy="4"/>
<feGaussianBlur stdDeviation="2"/>
<feComposite in2="hardAlpha" operator="out"/>
<feColorMatrix type="matrix" values="0 0 0 0 0 0 0 0 0 0 0 0 0 0 0 0 0 0 0.25 0"/>
<feBlend mode="normal" in2="BackgroundImageFix" result="effect1_dropShadow_346_10891"/>
<feBlend mode="normal" in="SourceGraphic" in2="effect1_dropShadow_346_10891" result="shape"/>
</filter>
</defs>
</svg>
