<svg width="127" height="127" viewBox="0 0 127 127" fill="none" xmlns="http://www.w3.org/2000/svg">
<g clip-path="url(#clip0_301_14342)">
<path d="M79.9929 31.3997C85.2192 35.7697 88.8357 41.599 89.7698 48.445C90.4245 56.3009 88.7539 63.4799 83.6266 69.5856C79.2386 74.6543 72.8693 78.2244 66.1524 78.9468C62.5348 79.132 59.002 79.1927 55.543 78.0107C55.2454 77.9274 54.9477 77.8442 54.641 77.7584C48.226 75.8691 42.7773 71.3698 39.5498 65.5413C36.1949 59.1931 34.9755 51.9849 36.8292 44.9321C39.2068 37.6179 44.1143 31.7578 50.8624 28.0844C60.3675 23.5518 71.8137 24.8071 79.9929 31.3997Z" fill="#7ADA9B"/>
<path d="M14.3544 46.8047C15.4419 46.851 16.0231 46.9062 16.7922 47.7018C17.4864 48.9442 17.4691 49.7262 17.2912 51.1075C15.7658 62.8902 15.7658 62.8902 19.7386 73.6089C21.4634 75.7537 23.4128 77.6668 25.4513 79.5103C25.6325 79.6743 25.8137 79.8384 26.0005 80.0073C28.1235 81.9137 30.3141 83.7168 32.5658 85.4689C33.5333 86.2363 34.459 87.0416 35.3758 87.8684C35.9342 88.366 35.9342 88.366 36.8212 88.93C37.085 84.8403 34.9424 81.79 32.8975 78.3877C32.7202 78.084 32.5428 77.7803 32.36 77.4674C32.198 77.1964 32.036 76.9254 31.8691 76.6462C31.4514 75.6725 31.4086 75.002 31.5165 73.9521C31.8254 73.4887 31.8254 73.4887 32.1406 73.016C34.1781 72.7079 34.1781 72.7079 35.1563 73.3647C35.6519 73.8551 36.0911 74.3651 36.5287 74.9077C36.8517 75.2834 37.1752 75.6589 37.4989 76.034C37.6511 76.2148 37.8034 76.3956 37.9603 76.5819C38.4683 77.1738 39.0096 77.7209 39.571 78.2622C40.2715 78.9476 40.911 79.6566 41.5408 80.4074C42.9903 82.0877 44.6483 83.5463 46.2919 85.0321C46.7774 85.4713 47.2609 85.9124 47.7438 86.3545C49.0188 87.5195 50.2992 88.676 51.604 89.8076C52.5417 90.6259 53.4357 91.4608 54.2954 92.3624C54.6242 92.6991 54.6242 92.6991 54.9597 93.0426C56.594 94.7711 57.7545 96.4064 58.6639 98.6032C58.7633 98.8124 58.8626 99.0215 58.965 99.237C60.6422 103.256 59.6235 107.848 58.0399 111.709C56.4957 115.331 54.3835 118.793 52.1111 122.006C51.8393 122.505 51.8393 122.505 51.5619 123.014C50.9374 123.744 50.5888 123.872 49.6276 124.041C48.4029 124.096 47.1866 124.089 45.9618 124.061C45.5092 124.058 45.0567 124.055 44.6042 124.053C43.4165 124.046 42.2291 124.028 41.0416 124.007C39.8284 123.988 38.6152 123.979 37.402 123.97C35.0239 123.95 32.6462 123.918 30.2684 123.878C30.4915 122.677 30.8236 121.674 31.3288 120.558C31.4784 120.224 31.6281 119.89 31.7822 119.545C31.9391 119.199 32.096 118.853 32.2576 118.496C34.7874 113.001 34.7874 113.001 34.949 107.028C34.1045 105.011 32.7397 103.468 31.1606 101.987C30.2159 101.05 29.4134 100.001 28.5802 98.9652C27.6558 97.8259 26.6895 96.724 25.7243 95.6193C24.1749 93.841 22.6668 92.041 21.2192 90.1782C20.9912 89.8865 20.7631 89.5949 20.5281 89.2944C16.8865 84.6023 13.394 79.8077 10.0861 74.8742C9.82454 74.4872 9.55905 74.1029 9.28829 73.7223C8.307 72.3275 8.19094 71.2442 8.42561 69.5836C8.59681 68.8423 8.78028 68.1039 8.97168 67.3676C9.46124 65.456 9.92527 63.5402 10.3661 61.6168C10.4244 61.3627 10.4827 61.1087 10.5428 60.8469C10.7216 60.0667 10.8998 59.2865 11.0779 58.5062C11.5412 56.4768 12.0077 54.4482 12.4821 52.4214C12.5391 52.1767 12.5962 51.9321 12.6549 51.68C12.819 50.9806 12.9864 50.2821 13.155 49.5838C13.2038 49.3743 13.2527 49.1649 13.3031 48.9491C13.5322 48.0153 13.6611 47.4979 14.3544 46.8047Z" fill="#2E8CFE"/>
<path d="M109.526 46.8066C111.008 47.0407 111.008 47.0407 111.71 47.7428C111.937 48.4798 111.937 48.4798 112.15 49.4236C112.232 49.7817 112.314 50.1398 112.399 50.5087C112.487 50.9024 112.575 51.2961 112.666 51.7018C112.808 52.3289 112.95 52.956 113.093 53.583C113.195 54.0321 113.296 54.4812 113.398 54.9303C113.743 56.4544 114.1 57.9751 114.466 59.4945C114.727 60.5816 114.985 61.6693 115.243 62.7572C115.37 63.2873 115.498 63.8172 115.627 64.3468C117.34 71.3872 117.34 71.3872 116.295 73.5492C115.725 74.4579 115.11 75.305 114.46 76.1578C114.12 76.6233 114.12 76.6233 113.773 77.0981C113.311 77.7301 112.846 78.3598 112.377 78.9869C111.773 79.7986 111.181 80.6174 110.596 81.443C108.556 84.3197 106.435 87.1227 104.221 89.8681C103.984 90.1617 103.748 90.4553 103.504 90.7579C102.11 92.4736 100.687 94.1644 99.2545 95.8481C98.3519 96.9106 97.469 97.9865 96.5955 99.0732C95.6774 100.21 94.7166 101.278 93.7051 102.33C91.6618 104.469 90.1825 106.222 90.0232 109.293C90.2329 113.899 92.7251 118.432 94.7903 122.468C95.1719 123.256 95.1719 123.256 95.1719 123.88C92.5516 124.004 89.9327 124.098 87.3103 124.155C86.092 124.183 84.8758 124.22 83.6587 124.281C75.8229 124.66 75.8229 124.66 73.7775 123.38C72.5419 122.187 71.7836 120.827 71.1261 119.253C70.668 118.195 70.0557 117.253 69.4481 116.274C68.4595 114.48 67.5317 112.68 66.7763 110.775C66.6765 110.533 66.5768 110.29 66.474 110.041C65.3023 106.624 65.15 101.802 66.4447 98.4101C68.4395 94.5103 71.5155 91.2966 74.9088 88.5809C78.5211 85.684 81.7918 82.3662 85.0696 79.1027C85.2985 78.8753 85.5274 78.6478 85.7632 78.4135C87.0238 77.1492 88.2298 75.8556 89.3898 74.4983C89.5474 74.3187 89.7049 74.1391 89.8672 73.9541C90.0191 73.7781 90.171 73.6021 90.3275 73.4208C90.8033 73.0179 90.8033 73.0179 91.9149 72.9204C92.9876 73.0179 92.9876 73.0179 93.6117 73.642C93.933 75.7742 93.0136 77.219 91.993 79.0442C91.6892 79.6019 91.3857 80.1597 91.0824 80.7178C90.9329 80.9922 90.7834 81.2666 90.6294 81.5494C90.4808 81.8232 90.3323 82.097 90.1792 82.3791C90.0281 82.657 89.8769 82.9348 89.7211 83.2211C88.7057 85.1287 88.7057 85.1287 88.5215 87.2547C88.5426 87.6469 88.5426 87.6469 88.5642 88.047C88.5823 88.2361 88.6004 88.4251 88.619 88.6199C89.8586 88.1214 90.685 87.2577 91.6031 86.3209C91.7727 86.1504 91.9423 85.9798 92.117 85.8042C92.4841 85.4347 92.8505 85.0645 93.2162 84.6937C93.7944 84.1076 94.3745 83.5234 94.9551 82.9397C96.1863 81.7015 97.4149 80.4608 98.6433 79.2197C100.069 77.7796 101.495 76.3405 102.924 74.904C103.497 74.3272 104.068 73.7486 104.638 73.1698C104.988 72.8184 105.337 72.467 105.686 72.1158C105.845 71.9534 106.005 71.791 106.169 71.6236C106.548 71.2443 106.943 70.8811 107.341 70.5216C107.547 70.5216 107.753 70.5216 107.965 70.5216C107.962 70.2521 107.959 69.9826 107.955 69.705C107.924 67.1616 107.9 64.6183 107.885 62.0748C107.876 60.7672 107.865 59.4598 107.848 58.1523C107.831 56.8898 107.821 55.6275 107.817 54.3649C107.815 53.8839 107.809 53.4029 107.801 52.922C107.789 52.2467 107.788 51.5719 107.788 50.8965C107.785 50.5126 107.781 50.1288 107.778 49.7333C108.026 48.3397 108.554 47.8145 109.526 46.8066Z" fill="#2E8CFE"/>
<path d="M66.4067 39.2966C66.719 39.382 66.719 39.382 67.0375 39.4691C67.8138 39.6845 68.5513 39.8911 69.2736 40.2522C69.122 41.2267 68.962 42.1231 68.6495 43.0606C68.6051 43.5729 68.5808 44.0871 68.5715 44.6013C68.5595 45.0013 68.5595 45.0013 68.5471 45.4094C68.6738 46.3641 68.8832 46.7704 69.5856 47.4291C70.3857 47.6036 70.3857 47.6036 71.2629 47.5461C71.7009 47.5401 71.7009 47.5401 72.1478 47.5339C73.054 47.4248 73.7406 47.1552 74.5783 46.805C74.8872 46.805 75.1961 46.805 75.5144 46.805C76.8303 50.7135 76.939 54.3987 75.1597 58.1652C73.3385 61.6123 70.6334 64.0922 66.8748 65.3202C62.7454 66.148 58.9766 65.7497 55.394 63.476C52.5698 61.4465 50.4546 58.6287 49.6151 55.2301C49.1324 51.2746 49.4799 47.6676 51.8774 44.3867C55.6402 39.9129 60.5995 37.6267 66.4067 39.2966Z" fill="#E3BD01"/>
<path d="M0 0C41.91 0 83.82 0 127 0C127 41.91 127 83.82 127 127C85.09 127 43.18 127 0 127C0 85.09 0 43.18 0 0ZM0.624079 0.624079C0.617643 21.3152 0.611207 42.0063 0.604576 63.3245C0.601735 69.8705 0.598895 76.4165 0.595968 83.1608C0.594924 89.0017 0.594924 89.0017 0.594296 94.8426C0.594004 97.4549 0.592855 100.067 0.591135 102.679C0.589156 105.688 0.588243 108.697 0.588679 111.706C0.588868 113.246 0.588557 114.787 0.586879 116.328C0.585373 117.719 0.585276 119.109 0.586353 120.5C0.586486 121.005 0.586081 121.511 0.58511 122.016C0.583874 122.7 0.584523 123.383 0.585683 124.066C0.585564 124.447 0.585446 124.828 0.585324 125.221C0.527993 126.038 0.527993 126.038 0.936118 126.376C1.60135 126.407 2.26762 126.415 2.93355 126.414C3.14578 126.415 3.35801 126.415 3.57667 126.415C4.29639 126.416 5.0161 126.415 5.73582 126.413C6.25225 126.414 6.76868 126.414 7.28511 126.414C8.71402 126.415 10.1429 126.414 11.5718 126.412C13.1327 126.411 14.6936 126.411 16.2545 126.411C19.2885 126.412 22.3224 126.41 25.3564 126.408C28.8636 126.406 32.3709 126.406 35.8781 126.405C45.1439 126.404 54.4097 126.399 63.6755 126.395C84.3667 126.389 105.058 126.383 126.376 126.376C126.376 84.8778 126.376 43.3797 126.376 0.624079C84.8778 0.624079 43.3797 0.624079 0.624079 0.624079Z" fill="#FEFEFE"/>
<path d="M85.4993 9.67188C86.8301 9.94901 87.9607 10.5731 88.9317 11.5441C89.0292 12.2657 89.0292 12.2657 88.9317 13.1043C88.5157 13.5204 88.0996 13.9364 87.6836 14.3525C87.5715 14.9751 87.4667 15.5992 87.3715 16.2247C86.4354 16.8488 86.4354 16.8488 85.5773 16.8098C84.3442 16.4778 83.4625 15.9604 82.3789 15.2886C82.8559 13.9556 83.5382 12.7944 84.2901 11.6026C84.4064 11.4162 84.5226 11.2297 84.6424 11.0377C84.9269 10.5817 85.213 10.1267 85.4993 9.67188Z" fill="#8ADEA7"/>
<path d="M37.4452 12.1699C38.0693 12.794 38.0693 12.794 38.1083 13.6131C38.0954 13.8577 38.0825 14.1022 38.0693 14.3542C38.3138 14.3928 38.5584 14.4314 38.8104 14.4712C39.6295 14.6662 39.6295 14.6662 40.2535 15.2903C40.3657 16.0338 40.3657 16.0338 40.2535 16.8505C39.7513 17.4916 39.7513 17.4916 39.0834 18.0597C38.8662 18.2519 38.649 18.4442 38.4252 18.6423C37.7572 19.0348 37.7572 19.0348 37.1424 18.9629C36.3956 18.6797 36.1561 18.4126 35.6936 17.7696C35.5554 17.5777 35.4173 17.3858 35.2749 17.1881C35.1351 16.9866 34.9954 16.7851 34.8514 16.5775C34.7055 16.3784 34.5597 16.1793 34.4095 15.9741C34.0412 15.4529 33.7118 14.9046 33.3887 14.3542C34.0028 12.5117 35.6057 11.9191 37.4452 12.1699Z" fill="#87DEA5"/>
<path d="M24.3381 24.6523C24.3381 24.8583 24.3381 25.0642 24.3381 25.2764C23.7203 25.5853 23.7203 25.5853 23.09 25.9005C23.09 26.3124 23.09 26.7243 23.09 27.1487C24.143 26.9779 24.6758 26.8195 25.5863 26.2125C26.5569 26.2732 27.2289 26.3715 28.0436 26.9146C28.5482 27.6996 28.5695 28.103 28.3946 29.0209C27.673 29.8985 27.673 29.8985 26.8344 30.5811C26.5255 30.5811 26.2166 30.5811 25.8983 30.5811C25.8983 30.3751 25.8983 30.1692 25.8983 29.957C26.3102 29.7511 26.7221 29.5451 27.1465 29.3329C27.1465 28.921 27.1465 28.5091 27.1465 28.0848C25.7916 28.1424 25.7916 28.1424 24.6502 28.7089C23.753 28.8064 23.753 28.8064 22.7779 28.7089C22.1733 28.2018 22.1733 28.2018 21.8418 27.4607C21.8826 26.46 21.9862 25.8279 22.5634 25.0034C23.09 24.6523 23.09 24.6523 24.3381 24.6523Z" fill="#83DCA2"/>
<path d="M100.476 25.8984C101.412 26.2105 101.412 26.2105 101.958 26.9126C102.406 27.8988 102.355 28.316 102.036 29.3309C101.592 29.3695 101.592 29.3695 101.139 29.4089C100.131 29.5339 100.131 29.5339 99.7348 30.2865C99.6382 30.5858 99.6382 30.5858 99.5397 30.8911C99.2308 30.7881 98.9219 30.6851 98.6036 30.579C98.7995 29.6651 99.0986 28.9062 99.5397 28.0827C99.3467 28.2372 99.1536 28.3916 98.9547 28.5508C98.2916 29.0188 98.2916 29.0188 97.6675 29.0188C97.5645 28.7099 97.4616 28.401 97.3555 28.0827C97.8531 27.7083 98.3544 27.3386 98.8572 26.9711C99.2753 26.6616 99.2753 26.6616 99.7019 26.3458C99.9573 26.1982 100.213 26.0505 100.476 25.8984Z" fill="#90E0AC"/>
<path d="M54.6074 6.5541C57.0148 6.52363 57.0148 6.52363 57.7278 6.5541C57.8308 6.65708 57.9338 6.76005 58.0399 6.86614C58.0334 7.25873 58.027 7.65131 58.0204 8.05579C58.0039 9.07359 58.0845 9.74143 58.6639 10.6106C57.9228 10.5131 57.9228 10.5131 57.1037 10.2986C56.4797 9.36246 56.4797 9.36246 56.4797 8.42634C56.6856 8.42634 56.8915 8.42634 57.1037 8.42634C57.0008 8.11742 56.8978 7.8085 56.7917 7.49022C56.4828 7.38725 56.1739 7.28428 55.8556 7.17818C55.9586 8.41386 56.0615 9.64953 56.1676 10.9227C55.7557 10.8197 55.3438 10.7167 54.9195 10.6106C54.8165 9.27197 54.7135 7.93332 54.6074 6.5541Z" fill="#8DDFAA"/>
<path d="M65.8394 4.05664C66.2513 4.05664 66.6632 4.05664 67.0875 4.05664C67.096 4.75221 67.102 5.4478 67.107 6.1434C67.1107 6.53076 67.1143 6.91811 67.118 7.31721C67.0922 8.25742 66.9965 9.07509 66.7755 9.98539C67.5993 9.98539 68.4231 9.98539 69.2718 9.98539C69.3748 10.1913 69.4778 10.3973 69.5839 10.6095C68.2452 10.6095 66.9066 10.6095 65.5273 10.6095C65.6303 8.44703 65.7333 6.2846 65.8394 4.05664Z" fill="#85DDA3"/>
<path d="M85.4993 9.67188C86.394 9.85081 86.7042 9.94068 87.3715 10.608C87.0626 10.711 86.7537 10.8139 86.4354 10.92C86.0701 11.834 86.0701 11.834 85.8113 12.7923C85.7084 12.9982 85.6054 13.2042 85.4993 13.4163C85.2934 13.3134 85.0874 13.2104 84.8752 13.1043C84.7401 13.4615 84.7401 13.4615 84.6022 13.8259C84.2511 14.6645 84.2511 14.6645 83.6271 15.6006C83.2152 15.4976 82.8033 15.3947 82.3789 15.2886C82.8559 13.9556 83.5382 12.7944 84.2901 11.6026C84.4064 11.4162 84.5226 11.2297 84.6424 11.0377C84.9269 10.5817 85.213 10.1267 85.4993 9.67188Z" fill="#84DDA2"/>
<path d="M53.3594 7.17773C53.3594 7.38368 53.3594 7.58963 53.3594 7.80181C52.8445 7.80181 52.3297 7.80181 51.7992 7.80181C51.7992 8.2137 51.7992 8.6256 51.7992 9.04997C52.3141 9.04997 52.8289 9.04997 53.3594 9.04997C53.2564 9.25592 53.1535 9.46186 53.0474 9.67405C52.7384 9.67405 52.4295 9.67405 52.1112 9.67405C52.3172 10.0859 52.5231 10.4978 52.7353 10.9222C53.2502 10.9222 53.7651 10.9222 54.2955 10.9222C54.1925 11.1282 54.0896 11.3341 53.9835 11.5463C53.157 11.7315 52.3322 11.7778 51.4872 11.8583C50.3549 8.92203 50.3549 8.92203 50.8631 7.48977C51.7656 7.23191 52.3882 7.17773 53.3594 7.17773Z" fill="#90E0AC"/>
<path d="M77.3849 8.73828C79.4911 8.97231 79.4911 8.97231 80.1932 9.6744C79.4724 9.57143 78.7516 9.46845 78.009 9.36236C78.009 9.77425 78.009 10.1861 78.009 10.6105C78.4208 10.8165 78.8327 11.0224 79.2571 11.2346C78.7422 11.3376 78.2274 11.4405 77.6969 11.5466C77.5939 11.8556 77.491 12.1645 77.3849 12.4828C77.8997 12.5857 78.4146 12.6887 78.9451 12.7948C78.9451 13.0007 78.9451 13.2067 78.9451 13.4189C77.7796 13.2635 77.1314 13.1459 76.1367 12.4828C76.2252 12.0337 76.3168 11.5852 76.4098 11.1371C76.4604 10.8873 76.5111 10.6375 76.5633 10.3801C76.7608 9.6744 76.7608 9.6744 77.3849 8.73828Z" fill="#90E0AC"/>
<path d="M30.5802 19.0352C30.7861 19.1381 30.9921 19.2411 31.2043 19.3472C30.9983 19.5531 30.7924 19.7591 30.5802 19.9713C30.5802 20.2802 30.5802 20.5891 30.5802 20.9074C31.0951 20.7014 31.6099 20.4955 32.1404 20.2833C32.0374 20.9012 31.9344 21.519 31.8283 22.1555C32.2402 22.1555 32.6521 22.1555 33.0765 22.1555C33.1795 21.9496 33.2824 21.7437 33.3885 21.5315C33.5945 21.5315 33.8004 21.5315 34.0126 21.5315C33.6092 22.4315 33.1828 23.0518 32.4524 23.7157C31.2226 23.1954 30.3339 22.3967 29.332 21.5315C29.4875 20.3808 29.6755 19.7825 30.5802 19.0352Z" fill="#8ADEA7"/>
<path d="M98.3508 22.7793C98.9701 23.121 99.3895 23.495 99.8525 24.0275C99.7495 24.3364 99.6465 24.6453 99.5404 24.9636C99.3345 24.6547 99.1285 24.3457 98.9163 24.0275C98.5045 24.0275 98.0926 24.0275 97.6682 24.0275C97.9771 24.5423 98.286 25.0572 98.6043 25.5877C98.2954 25.5877 97.9865 25.5877 97.6682 25.5877C97.4622 25.3817 97.2563 25.1758 97.0441 24.9636C96.7352 25.0665 96.4263 25.1695 96.108 25.2756C96.2689 25.5202 96.4298 25.7647 96.5956 26.0167C96.7436 26.287 96.8916 26.5573 97.0441 26.8358C96.9411 27.0418 96.8382 27.2477 96.7321 27.4599C96.2172 26.842 95.7023 26.2242 95.1719 25.5877C95.6638 24.2594 96.8411 22.7793 98.3508 22.7793Z" fill="#89DEA7"/>
<path d="M89.5558 14.9766C90.603 15.1636 91.234 15.5527 92.0521 16.2247C91.9492 16.4307 91.8462 16.6366 91.7401 16.8488C90.9678 16.5399 90.9678 16.5399 90.1799 16.2247C90.3859 16.7396 90.5918 17.2544 90.804 17.7849C90.2891 17.6819 89.7743 17.579 89.2438 17.4729C89.0028 18.0461 89.0028 18.0461 88.9318 18.721C89.3544 19.2739 89.3544 19.2739 89.8679 19.6572C89.1439 19.5323 88.6624 19.3745 88.0541 18.9551C87.6836 18.409 87.6836 18.409 87.6836 17.6874C88.1063 16.5513 88.7426 15.8733 89.5558 14.9766Z" fill="#88DEA6"/>
<path d="M42.1261 10.9219C42.2291 11.1278 42.3321 11.3338 42.4382 11.546C42.0263 11.6489 41.6144 11.7519 41.19 11.858C41.293 12.1669 41.396 12.4758 41.5021 12.7941C42.0169 12.6911 42.5318 12.5882 43.0623 12.4821C42.7502 13.4182 42.7502 13.4182 42.1261 14.0423C42.2291 14.2482 42.3321 14.4542 42.4382 14.6663C43.056 14.5634 43.6739 14.4604 44.3104 14.3543C44.3104 14.5603 44.3104 14.7662 44.3104 14.9784C43.4328 15.4659 43.4328 15.4659 42.4382 15.9145C41.5021 15.6025 41.5021 15.6025 41.1376 15.0698C41.0326 14.853 40.9276 14.6362 40.8195 14.4128C40.7121 14.1984 40.6047 13.984 40.494 13.7631C40.2539 13.1061 40.2539 13.1061 40.2539 11.858C40.8717 11.5491 41.4896 11.2402 42.1261 10.9219Z" fill="#88DEA6"/>
<path d="M27.7716 22.1562C27.9775 22.2592 28.1835 22.3622 28.3957 22.4683C27.9323 23.2406 27.9323 23.2406 27.4596 24.0285C27.6462 23.977 27.8328 23.9255 28.0251 23.8725C28.7077 23.7164 28.7077 23.7164 29.6438 23.7164C29.4379 24.1283 29.2319 24.5402 29.0198 24.9646C29.3287 25.0676 29.6376 25.1705 29.9559 25.2766C30.6394 24.8486 30.6394 24.8486 31.204 24.3405C30.8689 25.2502 30.6492 25.8315 29.9559 26.5248C28.8957 26.4218 28.312 25.9571 27.5376 25.2571C27.3461 25.0862 27.1546 24.9152 26.9574 24.7391C26.8142 24.6076 26.671 24.476 26.5234 24.3405C26.8586 23.4309 27.0783 22.8496 27.7716 22.1562Z" fill="#86DDA4"/>
<path d="M73.0176 7.17773C73.3265 7.17773 73.6354 7.17773 73.9537 7.17773C74.0567 8.31044 74.1596 9.44314 74.2657 10.6102C74.5103 10.1983 74.7549 9.78638 75.0068 9.36201C75.4237 8.65992 75.4237 8.65992 75.8259 8.11385C76.0319 8.11385 76.2378 8.11385 76.45 8.11385C75.9642 9.57141 75.1755 10.6373 74.2657 11.8583C73.8538 11.7554 73.442 11.6524 73.0176 11.5463C73.0176 10.1047 73.0176 8.66304 73.0176 7.17773Z" fill="#83DCA2"/>
<path d="M49.303 8.11328C49.303 8.31923 49.303 8.52517 49.303 8.73736C49.097 8.73736 48.8911 8.73736 48.6789 8.73736C48.7501 8.89946 48.8213 9.06156 48.8946 9.22858C49.431 10.5299 49.7821 11.3999 49.303 12.7939C49.097 12.7939 48.8911 12.7939 48.6789 12.7939C48.37 11.6612 48.061 10.5285 47.7428 9.36144C47.4338 9.36144 47.1249 9.36144 46.8066 9.36144C46.8066 9.15549 46.8066 8.94955 46.8066 8.73736C48.6009 8.11328 48.6009 8.11328 49.303 8.11328Z" fill="#8ADEA7"/>
<path d="M92.675 17.1621C93.7257 17.5969 94.2308 18.0917 94.8592 19.0343C94.4474 18.9314 94.0355 18.8284 93.6111 18.7223C93.5339 18.9025 93.4566 19.0827 93.3771 19.2684C92.9265 20.0794 92.4456 20.619 91.7389 21.2186C91.4299 21.2186 91.121 21.2186 90.8027 21.2186C91.1168 20.2764 91.3694 19.7142 92.0899 19.0148C92.8196 18.401 92.8196 18.401 92.675 17.1621Z" fill="#86DDA5"/>
<path d="M45.8694 9.36133C45.8694 9.56727 45.8694 9.77322 45.8694 9.98541C45.6634 9.98541 45.4575 9.98541 45.2453 9.98541C45.339 10.1737 45.4327 10.3619 45.5293 10.5559C45.7073 10.9299 45.7073 10.9299 45.8889 11.3116C46.0083 11.5577 46.1278 11.8039 46.2509 12.0575C46.5202 12.8749 46.4717 13.2458 46.1814 14.0419C45.9755 14.0419 45.7695 14.0419 45.5573 14.0419C45.1454 13.0122 44.7335 11.9825 44.3092 10.9215C44.0002 10.9215 43.6913 10.9215 43.373 10.9215C43.373 10.7156 43.373 10.5096 43.373 10.2974C45.1673 9.36133 45.1673 9.36133 45.8694 9.36133Z" fill="#87DEA5"/>
<path d="M95.1711 19.6582C96.0711 20.0617 96.6914 20.488 97.3553 21.2184C97.2524 21.4243 97.1494 21.6303 97.0433 21.8425C96.7344 21.8425 96.4255 21.8425 96.1072 21.8425C95.5185 22.2499 95.5185 22.2499 94.9565 22.7786C94.7623 22.9524 94.568 23.1261 94.3678 23.3052C94.221 23.4403 94.0742 23.5755 93.9229 23.7147C93.717 23.6117 93.511 23.5088 93.2988 23.4027C93.8192 22.1728 94.6179 21.2842 95.4831 20.2823C95.3801 20.0763 95.2772 19.8704 95.1711 19.6582Z" fill="#84DDA3"/>
<path d="M36.8199 15.291C37.5609 15.252 37.5609 15.252 38.38 15.291C38.586 15.4969 38.7919 15.7029 39.0041 15.9151C38.9456 16.6951 38.9456 16.6951 38.6921 17.4752C38.3832 17.6812 38.0742 17.8871 37.756 18.0993C37.1124 17.3972 37.1124 17.3972 36.5078 16.5391C36.5858 15.8175 36.5858 15.8175 36.8199 15.291Z" fill="#F7FCF9"/>
<path d="M84.8756 13.1055C86.0466 13.5588 86.0466 13.5588 86.3968 14.3341C86.4358 14.9777 86.4358 14.9777 85.8117 15.9138C84.8849 15.7594 84.8849 15.7594 83.9395 15.6018C84.1353 14.6879 84.4344 13.929 84.8756 13.1055Z" fill="#F9FDFA"/>
<path d="M100.476 25.8984C100.785 26.0014 101.094 26.1044 101.412 26.2105C101.412 26.4164 101.412 26.6224 101.412 26.8346C100.751 27.3733 100.751 27.3733 99.8908 27.9657C99.4672 28.2613 99.4672 28.2613 99.0351 28.563C98.2916 29.0188 98.2916 29.0188 97.6675 29.0188C97.5645 28.7099 97.4616 28.401 97.3555 28.0827C97.8531 27.7083 98.3544 27.3386 98.8572 26.9711C99.2753 26.6616 99.2753 26.6616 99.7019 26.3458C99.9573 26.1982 100.213 26.0505 100.476 25.8984Z" fill="#86DDA4"/>
<path d="M70.5206 6.86523C70.8295 6.86523 71.1384 6.86523 71.4567 6.86523C71.3537 8.20388 71.2507 9.54253 71.1446 10.9217C70.7327 10.9217 70.3209 10.9217 69.8965 10.9217C70.1024 9.5831 70.3084 8.24445 70.5206 6.86523Z" fill="#85DDA3"/>
<path d="M39.6296 14.665C40.2537 15.289 40.2537 15.289 40.3512 16.0691C40.3029 16.4553 40.3029 16.4553 40.2537 16.8492C39.9447 17.0552 39.6358 17.2611 39.3175 17.4733C39.2017 17.1258 39.2017 17.1258 39.0835 16.7712C38.6649 15.8503 38.1914 15.3364 37.4453 14.665C38.2897 14.2428 38.7349 14.4189 39.6296 14.665Z" fill="#82DCA2"/>
<path d="M86.4342 10.6094C86.8461 10.8153 87.2579 11.0213 87.6823 11.2335C87.5793 11.7483 87.4764 12.2632 87.3703 12.7936C86.8554 12.8966 86.3406 12.9996 85.8101 13.1057C85.7071 12.7968 85.6041 12.4879 85.498 12.1696C85.9466 11.331 85.9466 11.331 86.4342 10.6094Z" fill="#F7FDF9"/>
<path d="M35.2613 13.1055C35.7761 13.1055 36.291 13.1055 36.8215 13.1055C36.9244 13.6203 37.0274 14.1352 37.1335 14.6657C36.5157 14.9746 36.5157 14.9746 35.8853 15.2897C35.3978 14.7242 35.3978 14.7242 34.9492 14.0416C35.0522 13.7327 35.1552 13.4237 35.2613 13.1055Z" fill="#F9FDFA"/>
<path d="M99.5396 28.084C99.9515 28.2899 100.363 28.4959 100.788 28.7081C100.479 28.8625 100.479 28.8625 100.164 29.0201C99.9369 29.6376 99.7274 30.2619 99.5396 30.8923C99.2307 30.7894 98.9218 30.6864 98.6035 30.5803C98.7994 29.6664 99.0985 28.9075 99.5396 28.084Z" fill="#8ADFA8"/>
<path d="M36.1968 12.1699C36.7196 12.2592 37.2402 12.3627 37.757 12.482C37.86 12.9968 37.9629 13.5117 38.069 14.0422C37.7601 14.0422 37.4512 14.0422 37.1329 14.0422C36.4503 13.2621 36.4503 13.2621 35.8848 12.482C35.9877 12.379 36.0907 12.276 36.1968 12.1699Z" fill="#7BDA9C"/>
<path d="M56.4785 8.73828C57.0441 8.79679 57.0441 8.79679 57.7267 9.05032C58.2727 9.84992 58.2727 9.84992 58.6628 10.6105C57.9217 10.552 57.9217 10.552 57.1026 10.2985C56.693 9.49888 56.693 9.49888 56.4785 8.73828Z" fill="#7FDB9F"/>
<path d="M55.8555 7.17773C56.2674 7.28071 56.6793 7.38368 57.1036 7.48977C57.1036 7.79869 57.1036 8.10761 57.1036 8.42589C56.8977 8.42589 56.6917 8.42589 56.4795 8.42589C56.3766 8.94076 56.2736 9.45562 56.1675 9.98609C56.0645 9.98609 55.9616 9.98609 55.8555 9.98609C55.8555 9.05933 55.8555 8.13257 55.8555 7.17773Z" fill="#EDFAF2"/>
<path d="M60.2237 9.36133C60.4296 9.36133 60.6356 9.36133 60.8478 9.36133C60.6923 10.512 60.5043 11.1103 59.5996 11.8576C59.8726 9.71237 59.8726 9.71237 60.2237 9.36133Z" fill="#87DEA5"/>
<path d="M101.413 27.1484C101.413 27.5603 101.413 27.9722 101.413 28.3966C101.104 28.4996 100.795 28.6025 100.477 28.7086C100.168 28.3997 99.8593 28.0908 99.541 27.7725C100.477 27.1484 100.477 27.1484 101.413 27.1484Z" fill="#F5FCF8"/>
<path d="M24.3386 24.6512C24.3386 24.8572 24.3386 25.0631 24.3386 25.2753C24.049 25.4008 24.049 25.4008 23.7535 25.5288C22.997 25.8855 22.997 25.8855 22.4663 26.8355C22.2518 26.2699 22.2518 26.2699 22.1543 25.5873C22.8332 24.5869 23.0661 24.6512 24.3386 24.6512Z" fill="#96E2B1"/>
</g>
<defs>
<clipPath id="clip0_301_14342">
<rect width="127" height="127" fill="white"/>
</clipPath>
</defs>
</svg>
