<svg width="33" height="32" viewBox="0 0 33 32" fill="none" xmlns="http://www.w3.org/2000/svg">
<path d="M23.9657 16C23.9657 16.2496 23.8665 16.489 23.69 16.6655C23.5135 16.842 23.2741 16.9412 23.0245 16.9412H10.4755C10.2259 16.9412 9.98649 16.842 9.80998 16.6655C9.63348 16.489 9.53432 16.2496 9.53432 16C9.53432 15.7504 9.63348 15.511 9.80998 15.3345C9.98649 15.158 10.2259 15.0588 10.4755 15.0588H23.0245C23.2741 15.0588 23.5135 15.158 23.69 15.3345C23.8665 15.511 23.9657 15.7504 23.9657 16ZM32.75 16C32.75 19.1645 31.8116 22.2579 30.0535 24.8891C28.2954 27.5203 25.7966 29.5711 22.8729 30.7821C19.9493 31.9931 16.7323 32.3099 13.6286 31.6926C10.5249 31.0752 7.67394 29.5513 5.4363 27.3137C3.19866 25.0761 1.67481 22.2251 1.05744 19.1214C0.440079 16.0177 0.756932 12.8007 1.96793 9.87706C3.17894 6.95345 5.2297 4.45459 7.86088 2.69649C10.4921 0.938383 13.5855 0 16.75 0C20.9919 0.00498172 25.0587 1.69229 28.0582 4.69179C31.0577 7.69129 32.745 11.7581 32.75 16ZM30.8676 16C30.8676 13.2078 30.0397 10.4783 28.4884 8.15665C26.9371 5.83502 24.7323 4.02553 22.1526 2.95699C19.5729 1.88846 16.7343 1.60889 13.9958 2.15362C11.2572 2.69835 8.74171 4.04293 6.76732 6.01731C4.79293 7.9917 3.44836 10.5072 2.90363 13.2458C2.35889 15.9843 2.63847 18.8229 3.707 21.4026C4.77553 23.9822 6.58503 26.1871 8.90666 27.7384C11.2283 29.2897 13.9578 30.1176 16.75 30.1176C20.493 30.1135 24.0814 28.6248 26.7281 25.9781C29.3748 23.3314 30.8635 19.743 30.8676 16Z" fill="#2E8CFE"/>
<path d="M23.9657 16C23.9657 16.2496 23.8665 16.489 23.69 16.6655C23.5135 16.842 23.2741 16.9412 23.0245 16.9412H10.4755C10.2259 16.9412 9.98649 16.842 9.80998 16.6655C9.63348 16.489 9.53432 16.2496 9.53432 16C9.53432 15.7504 9.63348 15.511 9.80998 15.3345C9.98649 15.158 10.2259 15.0588 10.4755 15.0588H23.0245C23.2741 15.0588 23.5135 15.158 23.69 15.3345C23.8665 15.511 23.9657 15.7504 23.9657 16ZM32.75 16C32.75 19.1645 31.8116 22.2579 30.0535 24.8891C28.2954 27.5203 25.7966 29.5711 22.8729 30.7821C19.9493 31.9931 16.7323 32.3099 13.6286 31.6926C10.5249 31.0752 7.67394 29.5513 5.4363 27.3137C3.19866 25.0761 1.67481 22.2251 1.05744 19.1214C0.440079 16.0177 0.756932 12.8007 1.96793 9.87706C3.17894 6.95345 5.2297 4.45459 7.86088 2.69649C10.4921 0.938383 13.5855 0 16.75 0C20.9919 0.00498172 25.0587 1.69229 28.0582 4.69179C31.0577 7.69129 32.745 11.7581 32.75 16ZM30.8676 16C30.8676 13.2078 30.0397 10.4783 28.4884 8.15665C26.9371 5.83502 24.7323 4.02553 22.1526 2.95699C19.5729 1.88846 16.7343 1.60889 13.9958 2.15362C11.2572 2.69835 8.74171 4.04293 6.76732 6.01731C4.79293 7.9917 3.44836 10.5072 2.90363 13.2458C2.35889 15.9843 2.63847 18.8229 3.707 21.4026C4.77553 23.9822 6.58503 26.1871 8.90666 27.7384C11.2283 29.2897 13.9578 30.1176 16.75 30.1176C20.493 30.1135 24.0814 28.6248 26.7281 25.9781C29.3748 23.3314 30.8635 19.743 30.8676 16Z" fill="black" fill-opacity="0.2"/>
</svg>
