<svg width="22" height="22" viewBox="0 0 22 22" fill="none" xmlns="http://www.w3.org/2000/svg">
<path d="M4.93478 8.71088C4.93478 10.6244 5.57845 12.3883 6.66091 13.7977L5.97947 14.4791L5.93733 14.5227H4.23736C3.65952 14.5232 3.10554 14.7531 2.69721 15.162L0.318695 17.5404C0.166488 17.6928 0.0628551 17.8869 0.0208869 18.0982C-0.0210812 18.3094 0.000497398 18.5284 0.0828973 18.7274C0.165297 18.9264 0.304823 19.0965 0.483851 19.2163C0.66288 19.336 0.873381 19.4 1.08877 19.4002H2.59986V20.9113C2.60005 21.1267 2.66406 21.3372 2.78382 21.5162C2.90357 21.6952 3.07369 21.8347 3.27269 21.9171C3.4717 21.9995 3.69066 22.0211 3.90192 21.9792C4.11318 21.9372 4.30726 21.8336 4.45966 21.6814L6.83817 19.3014C7.24666 18.8934 7.47658 18.3401 7.47748 17.7628V16.0628L7.52107 16.0207L8.20251 15.3407C9.69855 16.4889 11.5391 17.0973 13.4247 17.0667C15.3104 17.0361 17.1303 16.3685 18.5883 15.1724C20.0463 13.9762 21.0568 12.322 21.4553 10.4787C21.8538 8.63536 21.6169 6.71146 20.7831 5.01988C19.9494 3.3283 18.5678 1.96857 16.8632 1.16185C15.1585 0.355131 13.2311 0.148883 11.3943 0.576654C9.55755 1.00443 7.91956 2.04105 6.74676 3.51791C5.57395 4.99478 4.93534 6.825 4.93478 8.71088ZM13.2894 2.53585C14.2584 2.53613 15.2138 2.76446 16.0783 3.20238C16.9427 3.64031 17.692 4.27554 18.2654 5.05669C18.8389 5.83784 19.2205 6.74299 19.3793 7.69893C19.5381 8.65487 19.4697 9.63477 19.1796 10.5594C18.8895 11.484 18.3859 12.3273 17.7094 13.0212C17.033 13.7151 16.2028 14.2401 15.2858 14.5537C14.3689 14.8673 13.3911 14.9606 12.4314 14.8263C11.4717 14.6919 10.5571 14.3336 9.76155 13.7802L12.1531 11.3872C12.774 11.6506 13.4672 11.6899 14.1138 11.4983C14.7604 11.3066 15.3203 10.896 15.6974 10.3369C16.0745 9.77772 16.2453 9.1048 16.1807 8.43348C16.116 7.76216 15.8198 7.13424 15.3429 6.65735C14.866 6.18045 14.2381 5.88429 13.5668 5.81962C12.8954 5.75495 12.2225 5.9258 11.6633 6.30289C11.1042 6.67998 10.6936 7.23981 10.5019 7.88645C10.3103 8.53308 10.3496 9.22623 10.613 9.84709L8.21849 12.2372C7.57422 11.311 7.19599 10.2261 7.12487 9.10015C7.05375 7.9742 7.29245 6.85028 7.81507 5.85044C8.33769 4.85059 9.12425 4.01302 10.0893 3.42868C11.0544 2.84434 12.1611 2.53555 13.2894 2.53585ZM5.93733 15.9756L6.02451 16.0613V17.7613C6.02408 17.9538 5.94726 18.1383 5.81092 18.2742L4.05283 20.0323V18.6737C4.05283 18.4811 3.97629 18.2963 3.84005 18.1601C3.7038 18.0238 3.51902 17.9473 3.32634 17.9473H1.96636L3.72446 16.1892C3.79193 16.1215 3.87209 16.0678 3.96035 16.0312C4.04861 15.9945 4.14324 15.9756 4.23881 15.9756H5.93733Z" fill="#2E8CFE"/>
</svg>
