<svg width="26" height="26" viewBox="0 0 26 26" fill="none" xmlns="http://www.w3.org/2000/svg">
<path d="M13.2897 2.17796C11.5643 2.17721 9.86518 2.60025 8.34161 3.40992C6.81804 4.21959 5.51667 5.3911 4.55188 6.82147C3.58709 8.25185 2.98841 9.8973 2.80847 11.6132C2.62853 13.3291 2.87283 15.063 3.5199 16.6624C3.57864 16.7959 3.60998 16.9399 3.61205 17.0857C3.61412 17.2316 3.58688 17.3764 3.53195 17.5115C3.47702 17.6467 3.39552 17.7694 3.29227 17.8725C3.18903 17.9755 3.06614 18.0568 2.9309 18.1115C2.79566 18.1662 2.65081 18.1931 2.50496 18.1908C2.3591 18.1884 2.21519 18.1568 2.08177 18.0979C1.94835 18.0389 1.82814 17.9537 1.72825 17.8474C1.62836 17.7411 1.55083 17.6158 1.50027 17.479C0.401155 14.7607 0.275413 11.7461 1.14434 8.94573C2.01327 6.14539 3.82345 3.73146 6.26827 2.11282C8.71309 0.49418 11.6423 -0.22966 14.5596 0.0639014C17.477 0.357463 20.2032 1.65038 22.2765 3.72366C24.3498 5.79694 25.6428 8.52312 25.9363 11.4404C26.2299 14.3578 25.5061 17.2869 23.8874 19.7317C22.2687 22.1765 19.8548 23.9866 17.0544 24.8555C14.254 25.7244 11.2393 25.5987 8.52102 24.4996C8.25893 24.3872 8.05136 24.1765 7.94284 23.9128C7.83431 23.6491 7.83349 23.3533 7.94055 23.089C8.04761 22.8247 8.25401 22.6129 8.51547 22.499C8.77693 22.3852 9.0726 22.3783 9.33904 22.48C10.7794 23.0614 12.3305 23.317 13.8812 23.2286C15.4319 23.1403 16.9439 22.7101 18.3089 21.9688C19.6739 21.2276 20.858 20.1937 21.7765 18.9412C22.6951 17.6887 23.3253 16.2485 23.6219 14.7239C23.9186 13.1992 23.8745 11.6279 23.4926 10.1223C23.1108 8.61676 22.4007 7.21427 21.4133 6.0153C20.4259 4.81633 19.1856 3.85055 17.7811 3.18714C16.3767 2.52374 14.8429 2.17911 13.2897 2.17796Z" fill="#E3BD01"/>
<path d="M4.93478 12.7114C4.93478 14.6249 5.57845 16.3888 6.66091 17.7981L5.97947 18.4796L5.93733 18.5232H4.23736C3.65952 18.5237 3.10554 18.7536 2.69721 19.1625L0.318695 21.5409C0.166488 21.6933 0.0628551 21.8874 0.0208869 22.0987C-0.0210812 22.3099 0.000497398 22.5289 0.0828973 22.7279C0.165297 22.9269 0.304823 23.097 0.483851 23.2168C0.66288 23.3365 0.873381 23.4005 1.08877 23.4007H2.59986V24.9118C2.60005 25.1272 2.66406 25.3377 2.78382 25.5167C2.90357 25.6957 3.07369 25.8352 3.27269 25.9176C3.4717 26 3.69066 26.0216 3.90192 25.9796C4.11318 25.9377 4.30726 25.834 4.45966 25.6818L6.83817 23.3019C7.24666 22.8939 7.47658 22.3406 7.47748 21.7632V20.0633L7.52107 20.0212L8.20251 19.3412C9.69855 20.4894 11.5391 21.0978 13.4247 21.0672C15.3104 21.0366 17.1303 20.369 18.5883 19.1728C20.0463 17.9767 21.0568 16.3225 21.4553 14.4792C21.8538 12.6359 21.6169 10.7119 20.7831 9.02037C19.9494 7.32879 18.5678 5.96906 16.8632 5.16234C15.1585 4.35562 13.2311 4.14937 11.3943 4.57714C9.55755 5.00491 7.91956 6.04154 6.74676 7.5184C5.57395 8.99527 4.93534 10.8255 4.93478 12.7114ZM13.2894 6.53634C14.2584 6.53661 15.2138 6.76495 16.0783 7.20287C16.9427 7.6408 17.692 8.27602 18.2654 9.05718C18.8389 9.83833 19.2205 10.7435 19.3793 11.6994C19.5381 12.6554 19.4697 13.6353 19.1796 14.5599C18.8895 15.4845 18.3859 16.3278 17.7094 17.0217C17.033 17.7156 16.2028 18.2406 15.2858 18.5542C14.3689 18.8677 13.3911 18.9611 12.4314 18.8268C11.4717 18.6924 10.5571 18.334 9.76155 17.7807L12.1531 15.3877C12.774 15.6511 13.4672 15.6904 14.1138 15.4987C14.7604 15.3071 15.3203 14.8965 15.6974 14.3374C16.0745 13.7782 16.2453 13.1053 16.1807 12.434C16.116 11.7627 15.8198 11.1347 15.3429 10.6578C14.866 10.1809 14.2381 9.88478 13.5668 9.82011C12.8954 9.75544 12.2225 9.92629 11.6633 10.3034C11.1042 10.6805 10.6936 11.2403 10.5019 11.8869C10.3103 12.5336 10.3496 13.2267 10.613 13.8476L8.21849 16.2377C7.57422 15.3115 7.19599 14.2266 7.12487 13.1006C7.05375 11.9747 7.29245 10.8508 7.81507 9.85092C8.33769 8.85108 9.12425 8.01351 10.0893 7.42917C11.0544 6.84482 12.1611 6.53604 13.2894 6.53634ZM5.93733 19.9761L6.02451 20.0618V21.7618C6.02408 21.9543 5.94726 22.1388 5.81092 22.2747L4.05283 24.0327V22.6742C4.05283 22.4816 3.97629 22.2968 3.84005 22.1605C3.7038 22.0243 3.51902 21.9478 3.32634 21.9478H1.96636L3.72446 20.1897C3.79193 20.122 3.87209 20.0683 3.96035 20.0317C4.04861 19.995 4.14324 19.9761 4.23881 19.9761H5.93733Z" fill="#2E8CFE"/>
</svg>
