<svg width="20" height="20" viewBox="0 0 20 20" fill="none" xmlns="http://www.w3.org/2000/svg">
<path d="M9.85157 0.367188C7.96028 0.367187 6.11147 0.928018 4.53893 1.97876C2.96638 3.0295 1.74073 4.52296 1.01697 6.27028C0.293206 8.0176 0.103836 9.9403 0.472808 11.7952C0.841779 13.6502 1.75252 15.3541 3.08986 16.6914C4.4272 18.0287 6.13107 18.9395 7.98602 19.3084C9.84096 19.6774 11.7637 19.488 13.511 18.7643C15.2583 18.0405 16.7518 16.8149 17.8025 15.2423C18.8532 13.6698 19.4141 11.821 19.4141 9.92969C19.4111 7.39447 18.4027 4.96394 16.61 3.17127C14.8173 1.3786 12.3868 0.370165 9.85157 0.367188ZM17.4988 6.36719H13.7131C13.2619 4.62801 12.4389 3.00735 11.3009 1.61688C12.6395 1.8529 13.9016 2.40779 14.9804 3.23464C16.0591 4.06148 16.923 5.13595 17.4988 6.36719ZM18.2891 9.92969C18.2897 10.7554 18.1687 11.5767 17.93 12.3672H13.9588C14.2325 10.7537 14.2325 9.10566 13.9588 7.49219H17.93C18.1687 8.28265 18.2897 9.10397 18.2891 9.92969ZM9.85157 18.1637C9.30998 17.6113 8.83229 16.9996 8.4275 16.3403C7.88125 15.4517 7.45683 14.4938 7.16563 13.4922H12.5375C12.2463 14.4938 11.8219 15.4517 11.2756 16.3403C10.8708 16.9996 10.3931 17.6113 9.85157 18.1637ZM6.89375 12.3672C6.58749 10.7566 6.58749 9.10276 6.89375 7.49219H12.8094C13.1156 9.10276 13.1156 10.7566 12.8094 12.3672H6.89375ZM1.41407 9.92969C1.41344 9.10397 1.53442 8.28265 1.77313 7.49219H5.74438C5.47062 9.10566 5.47062 10.7537 5.74438 12.3672H1.77313C1.53442 11.5767 1.41344 10.7554 1.41407 9.92969ZM9.85157 1.69562C10.3931 2.2481 10.8708 2.85976 11.2756 3.51906C11.8219 4.40765 12.2463 5.36559 12.5375 6.36719H7.16563C7.45683 5.36559 7.88125 4.40765 8.4275 3.51906C8.83229 2.85976 9.30998 2.2481 9.85157 1.69562ZM8.40219 1.61688C7.26423 3.00735 6.44127 4.62801 5.99 6.36719H2.20438C2.78017 5.13595 3.64398 4.06148 4.72278 3.23464C5.80158 2.40779 7.06362 1.8529 8.40219 1.61688ZM2.20438 13.4922H5.99C6.44127 15.2314 7.26423 16.852 8.40219 18.2425C7.06362 18.0065 5.80158 17.4516 4.72278 16.6247C3.64398 15.7979 2.78017 14.7234 2.20438 13.4922ZM11.2981 18.2425C12.4371 16.8523 13.261 15.2316 13.7131 13.4922H17.4988C16.923 14.7234 16.0591 15.7979 14.9804 16.6247C13.9016 17.4516 12.6395 18.0065 11.3009 18.2425H11.2981Z" fill="#2E8CFE"/>
</svg>
