<svg width="25" height="25" viewBox="0 0 25 25" fill="none" xmlns="http://www.w3.org/2000/svg">
<path d="M19.8756 16.7071L15.4469 14.7224C15.2462 14.6365 15.0273 14.6019 14.8099 14.6219C14.5925 14.6418 14.3835 14.7157 14.2019 14.8368C14.1835 14.8487 14.1659 14.8618 14.1494 14.8762L11.8347 16.8449C11.8107 16.858 11.7839 16.8654 11.7566 16.8663C11.7293 16.8673 11.7021 16.8619 11.6772 16.8506C10.1894 16.1324 8.64813 14.6006 7.9272 13.1334C7.9152 13.109 7.90897 13.0822 7.90897 13.0551C7.90897 13.028 7.9152 13.0012 7.9272 12.9768L9.90251 10.6274C9.91668 10.6101 9.92983 10.5919 9.94188 10.5731C10.0613 10.3907 10.1334 10.1815 10.1518 9.96432C10.1701 9.74713 10.1341 9.52879 10.0469 9.32901L8.07626 4.91245C7.96435 4.65145 7.77081 4.4338 7.52469 4.29214C7.27857 4.15049 6.99315 4.09248 6.71126 4.12682C5.48624 4.28807 4.36181 4.88976 3.54801 5.8195C2.73422 6.74923 2.2867 7.94342 2.28907 9.17901C2.28907 16.5196 8.26095 22.4915 15.6016 22.4915C16.8372 22.4939 18.0314 22.0464 18.9611 21.2326C19.8908 20.4188 20.4925 19.2943 20.6538 18.0693C20.688 17.7888 20.6308 17.5046 20.4906 17.2592C20.3504 17.0137 20.1347 16.8201 19.8756 16.7071ZM15.6016 21.3665C8.88157 21.3665 3.41407 15.899 3.41407 9.17901C3.41094 8.21707 3.75814 7.28689 4.3908 6.56227C5.02347 5.83765 5.89831 5.36815 6.85188 5.24151H6.87345C6.91123 5.24221 6.94791 5.25432 6.97869 5.27623C7.00948 5.29815 7.03292 5.32885 7.04595 5.36432L9.02407 9.78088C9.03535 9.80544 9.04119 9.83214 9.04119 9.85916C9.04119 9.88619 9.03535 9.91289 9.02407 9.93745L7.04501 12.2868C7.03024 12.3036 7.01677 12.3215 7.0047 12.3403C6.88086 12.5293 6.80793 12.7471 6.79299 12.9726C6.77804 13.1982 6.82158 13.4237 6.91938 13.6274C7.75095 15.3299 9.46657 17.0324 11.1878 17.864C11.3928 17.9613 11.6194 18.0038 11.8457 17.9873C12.0719 17.9709 12.29 17.8961 12.4788 17.7703C12.4966 17.7581 12.5144 17.7449 12.5313 17.7309L14.845 15.7621C14.8679 15.7499 14.8931 15.7427 14.919 15.741C14.9449 15.7394 14.9708 15.7434 14.995 15.7528L19.4247 17.7374C19.4609 17.7529 19.4913 17.7793 19.5117 17.8129C19.532 17.8465 19.5413 17.8857 19.5381 17.9249C19.4122 18.879 18.9431 19.7545 18.2186 20.3878C17.4942 21.0212 16.5639 21.3691 15.6016 21.3665ZM12.7891 8.42901C12.7891 8.27982 12.8483 8.13675 12.9538 8.03126C13.0593 7.92577 13.2024 7.86651 13.3516 7.86651H15.7891V5.42901C15.7891 5.27982 15.8483 5.13675 15.9538 5.03126C16.0593 4.92577 16.2024 4.86651 16.3516 4.86651C16.5008 4.86651 16.6438 4.92577 16.7493 5.03126C16.8548 5.13675 16.9141 5.27982 16.9141 5.42901V7.86651H19.3516C19.5008 7.86651 19.6438 7.92577 19.7493 8.03126C19.8548 8.13675 19.9141 8.27982 19.9141 8.42901C19.9141 8.57819 19.8548 8.72127 19.7493 8.82676C19.6438 8.93225 19.5008 8.99151 19.3516 8.99151H16.9141V11.429C16.9141 11.5782 16.8548 11.7213 16.7493 11.8268C16.6438 11.9322 16.5008 11.9915 16.3516 11.9915C16.2024 11.9915 16.0593 11.9322 15.9538 11.8268C15.8483 11.7213 15.7891 11.5782 15.7891 11.429V8.99151H13.3516C13.2024 8.99151 13.0593 8.93225 12.9538 8.82676C12.8483 8.72127 12.7891 8.57819 12.7891 8.42901Z" fill="#2E8CFE"/>
</svg>
