<svg width="19" height="19" viewBox="0 0 19 19" fill="none" xmlns="http://www.w3.org/2000/svg">
<path d="M11.415 6.95932C11.3097 6.85385 11.2505 6.71088 11.2505 6.56182C11.2505 6.41276 11.3097 6.26979 11.415 6.16432L14.955 2.62432H12.5625C12.4133 2.62432 12.2703 2.56506 12.1648 2.45957C12.0593 2.35408 12 2.21101 12 2.06182C12 1.91264 12.0593 1.76956 12.1648 1.66407C12.2703 1.55858 12.4133 1.49932 12.5625 1.49932H16.3125C16.4617 1.49932 16.6048 1.55858 16.7103 1.66407C16.8157 1.76956 16.875 1.91264 16.875 2.06182V5.81182C16.875 5.96101 16.8157 6.10408 16.7103 6.20957C16.6048 6.31506 16.4617 6.37432 16.3125 6.37432C16.1633 6.37432 16.0203 6.31506 15.9148 6.20957C15.8093 6.10408 15.75 5.96101 15.75 5.81182V3.41932L12.21 6.95932C12.1045 7.06466 11.9616 7.12383 11.8125 7.12383C11.6634 7.12383 11.5205 7.06466 11.415 6.95932ZM18.3647 13.9521C18.2034 15.1772 17.6018 16.3016 16.672 17.1154C15.7423 17.9292 14.5481 18.3767 13.3125 18.3743C5.97189 18.3743 1.09944e-05 12.4024 1.09944e-05 5.06182C-0.0025572 3.82618 0.444884 2.63188 1.25872 1.7021C2.07255 0.772326 3.1971 0.170693 4.4222 0.00963374C4.70409 -0.0247065 4.98951 0.0333034 5.23563 0.174957C5.48175 0.316611 5.67529 0.534267 5.7872 0.795259L7.76532 5.21182C7.8525 5.4116 7.88855 5.62994 7.87022 5.84714C7.85188 6.06433 7.77975 6.27354 7.66032 6.45588C7.64827 6.47476 7.63512 6.49292 7.62095 6.51026L5.64564 8.85401C5.63363 8.87852 5.62739 8.90546 5.62739 8.93276C5.62739 8.96006 5.63363 8.98699 5.64564 9.01151C6.36376 10.4815 7.90501 12.0115 9.39563 12.7287C9.42052 12.74 9.44771 12.7454 9.47505 12.7445C9.50239 12.7435 9.52912 12.7362 9.55313 12.7231L11.8678 10.7543C11.8843 10.7399 11.9019 10.7268 11.9203 10.7149C12.102 10.5938 12.3109 10.52 12.5283 10.5C12.7457 10.48 12.9647 10.5146 13.1653 10.6006L17.5941 12.5853C17.8526 12.6997 18.0673 12.8946 18.2061 13.1409C18.345 13.3871 18.4006 13.6717 18.3647 13.9521ZM17.25 13.8106C17.2532 13.7714 17.2439 13.7322 17.2235 13.6985C17.2032 13.6649 17.1728 13.6385 17.1366 13.6231L12.7069 11.6384C12.6827 11.629 12.6568 11.625 12.6309 11.6267C12.605 11.6283 12.5797 11.6355 12.5569 11.6478L10.2431 13.6165C10.2263 13.6306 10.2084 13.6437 10.1906 13.6559C10.0019 13.7817 9.78378 13.8565 9.55753 13.873C9.33128 13.8894 9.10463 13.8469 8.8997 13.7496C7.17845 12.9181 5.46282 11.2184 4.63126 9.51307C4.53346 9.30933 4.48992 9.08378 4.50486 8.85827C4.51981 8.63276 4.59273 8.41494 4.71657 8.22588C4.72864 8.20708 4.74212 8.18922 4.75689 8.17245L6.73032 5.82026C6.7416 5.7957 6.74745 5.769 6.74745 5.74198C6.74745 5.71495 6.7416 5.68825 6.73032 5.6637L4.75689 1.24713C4.74386 1.21167 4.72041 1.18096 4.68963 1.15905C4.65885 1.13713 4.62217 1.12503 4.58439 1.12432H4.56282C3.60925 1.25097 2.7344 1.72046 2.10174 2.44508C1.46908 3.1697 1.12188 4.09988 1.12501 5.06182C1.12501 11.7818 6.59251 17.2493 13.3125 17.2493C14.2745 17.2522 15.2047 16.9048 15.9293 16.272C16.6539 15.6392 17.1234 14.7642 17.25 13.8106Z" fill="black"/>
</svg>
