<svg width="31" height="31" viewBox="0 0 31 31" fill="none" xmlns="http://www.w3.org/2000/svg">
<path d="M15.5 0.230469C12.4344 0.230469 9.43763 1.1102 6.88867 2.75842C4.33971 4.40664 2.35303 6.74932 1.17987 9.49022C0.00671566 12.2311 -0.300236 15.2471 0.297835 18.1568C0.895906 21.0665 2.37214 23.7393 4.53985 25.8371C6.70756 27.9349 9.4694 29.3635 12.4761 29.9422C15.4828 30.521 18.5993 30.224 21.4316 29.0887C24.2639 27.9533 26.6846 26.0308 28.3878 23.564C30.0909 21.0973 31 18.1972 31 15.2305C30.9952 11.2537 29.3606 7.44106 26.4548 4.62902C23.5491 1.81699 19.6094 0.235139 15.5 0.230469ZM15.5 28.4658C12.7951 28.4658 10.1509 27.6895 7.90177 26.2352C5.65268 24.7809 3.89973 22.7138 2.8646 20.2954C1.82946 17.877 1.55862 15.2158 2.08633 12.6484C2.61404 10.081 3.91659 7.72269 5.82928 5.8717C7.74197 4.02071 10.1789 2.76017 12.8319 2.24949C15.4848 1.7388 18.2347 2.0009 20.7338 3.00265C23.2328 4.0044 25.3688 5.7008 26.8716 7.87733C28.3744 10.0539 29.1765 12.6128 29.1765 15.2305C29.1725 18.7395 27.7303 22.1037 25.1663 24.5849C22.6023 27.0662 19.126 28.4619 15.5 28.4658ZM22.4902 15.2305C22.4902 15.4645 22.3941 15.6889 22.2232 15.8544C22.0522 16.0199 21.8202 16.1128 21.5784 16.1128H16.4118V21.1128C16.4118 21.3468 16.3157 21.5713 16.1447 21.7367C15.9737 21.9022 15.7418 21.9952 15.5 21.9952C15.2582 21.9952 15.0263 21.9022 14.8553 21.7367C14.6843 21.5713 14.5882 21.3468 14.5882 21.1128V16.1128H9.42157C9.17976 16.1128 8.94785 16.0199 8.77686 15.8544C8.60587 15.6889 8.50981 15.4645 8.50981 15.2305C8.50981 14.9965 8.60587 14.772 8.77686 14.6065C8.94785 14.4411 9.17976 14.3481 9.42157 14.3481H14.5882V9.34811C14.5882 9.1141 14.6843 8.88967 14.8553 8.7242C15.0263 8.55872 15.2582 8.46576 15.5 8.46576C15.7418 8.46576 15.9737 8.55872 16.1447 8.7242C16.3157 8.88967 16.4118 9.1141 16.4118 9.34811V14.3481H21.5784C21.8202 14.3481 22.0522 14.4411 22.2232 14.6065C22.3941 14.772 22.4902 14.9965 22.4902 15.2305Z" fill="#525151"/>
</svg>
