<svg width="98" height="69" viewBox="0 0 98 69" fill="none" xmlns="http://www.w3.org/2000/svg">
<path d="M35.2412 0H6.66725C4.89898 0 3.20314 0.686131 1.95279 1.90745C0.702441 3.12877 0 4.78524 0 6.51244V36.2836C0 38.0108 0.702441 39.6673 1.95279 40.8886C3.20314 42.1099 4.89898 42.7961 6.66725 42.7961H36.1936V47.4478C36.1936 51.6425 34.4877 55.6653 31.4511 58.6314C28.4146 61.5974 24.2961 63.2637 20.0017 63.2637C19.2439 63.2637 18.5171 63.5578 17.9813 64.0812C17.4454 64.6046 17.1444 65.3146 17.1444 66.0548C17.1444 66.795 17.4454 67.5049 17.9813 68.0284C18.5171 68.5518 19.2439 68.8458 20.0017 68.8458C25.8094 68.8385 31.3771 66.5817 35.4837 62.5703C39.5904 58.559 41.9009 53.1207 41.9084 47.4478V6.51244C41.9084 4.78524 41.206 3.12877 39.9556 1.90745C38.7053 0.686131 37.0094 0 35.2412 0ZM36.1936 37.214H6.66725C6.41464 37.214 6.17238 37.1159 5.99375 36.9415C5.81513 36.767 5.71478 36.5304 5.71478 36.2836V6.51244C5.71478 6.2657 5.81513 6.02906 5.99375 5.85459C6.17238 5.68011 6.41464 5.5821 6.66725 5.5821H35.2412C35.4938 5.5821 35.736 5.68011 35.9147 5.85459C36.0933 6.02906 36.1936 6.2657 36.1936 6.51244V37.214ZM90.4841 0H61.9102C60.1419 0 58.4461 0.686131 57.1957 1.90745C55.9454 3.12877 55.2429 4.78524 55.2429 6.51244V36.2836C55.2429 38.0108 55.9454 39.6673 57.1957 40.8886C58.4461 42.1099 60.1419 42.7961 61.9102 42.7961H91.4365V47.4478C91.4365 51.6425 89.7306 55.6653 86.694 58.6314C83.6575 61.5974 79.539 63.2637 75.2447 63.2637C74.4868 63.2637 73.76 63.5578 73.2242 64.0812C72.6883 64.6046 72.3873 65.3146 72.3873 66.0548C72.3873 66.795 72.6883 67.5049 73.2242 68.0284C73.76 68.5518 74.4868 68.8458 75.2447 68.8458C81.0523 68.8385 86.62 66.5817 90.7267 62.5703C94.8333 58.559 97.1438 53.1207 97.1513 47.4478V6.51244C97.1513 4.78524 96.4489 3.12877 95.1985 1.90745C93.9482 0.686131 92.2523 0 90.4841 0ZM91.4365 37.214H61.9102C61.6576 37.214 61.4153 37.1159 61.2367 36.9415C61.058 36.767 60.9577 36.5304 60.9577 36.2836V6.51244C60.9577 6.2657 61.058 6.02906 61.2367 5.85459C61.4153 5.68011 61.6576 5.5821 61.9102 5.5821H90.4841C90.7367 5.5821 90.979 5.68011 91.1576 5.85459C91.3362 6.02906 91.4365 6.2657 91.4365 6.51244V37.214Z" fill="black" fill-opacity="0.27"/>
</svg>
