<svg width="87" height="18" viewBox="0 0 87 18" fill="none" xmlns="http://www.w3.org/2000/svg">
<path d="M13.6436 17.3142C13.4416 17.3142 13.2406 17.2522 13.0676 17.1287L9.00013 14.2117L4.93263 17.1287C4.76411 17.2499 4.56159 17.3148 4.35398 17.3141C4.14638 17.3134 3.94431 17.2471 3.77663 17.1247C3.60874 17.0031 3.48351 16.8315 3.41878 16.6346C3.35405 16.4376 3.35312 16.2252 3.41613 16.0277L4.93313 11.1317L0.902133 8.2912C0.735074 8.16791 0.611006 7.99522 0.547478 7.79755C0.483951 7.59987 0.48418 7.38723 0.548133 7.1897C0.612722 6.99273 0.737512 6.821 0.904904 6.69873C1.0723 6.57646 1.27385 6.50982 1.48113 6.5082L6.47363 6.5007L8.06313 1.7262C8.12873 1.52951 8.25454 1.35845 8.42275 1.23723C8.59096 1.11601 8.79305 1.05078 9.00038 1.05078C9.20772 1.05078 9.4098 1.11601 9.57801 1.23723C9.74622 1.35845 9.87204 1.52951 9.93763 1.7262L11.5001 6.5007L16.5181 6.5082C16.7257 6.50937 16.9276 6.57592 17.0952 6.6984C17.2628 6.82087 17.3875 6.99304 17.4517 7.19045C17.5159 7.38786 17.5162 7.60047 17.4526 7.79807C17.3891 7.99567 17.2649 8.16822 17.0976 8.2912L13.0666 11.1317L14.5836 16.0277C14.6467 16.2252 14.6458 16.4375 14.5812 16.6345C14.5166 16.8314 14.3914 17.003 14.2236 17.1247C14.0554 17.248 13.8522 17.3144 13.6436 17.3142Z" fill="#FFAC33"/>
<path d="M36.6436 17.3142C36.4416 17.3142 36.2406 17.2522 36.0676 17.1287L32.0001 14.2117L27.9326 17.1287C27.7641 17.2499 27.5616 17.3148 27.354 17.3141C27.1464 17.3134 26.9443 17.2471 26.7766 17.1247C26.6087 17.0031 26.4835 16.8315 26.4188 16.6346C26.354 16.4376 26.3531 16.2252 26.4161 16.0277L27.9331 11.1317L23.9021 8.2912C23.7351 8.16791 23.611 7.99522 23.5475 7.79755C23.484 7.59987 23.4842 7.38723 23.5481 7.1897C23.6127 6.99273 23.7375 6.821 23.9049 6.69873C24.0723 6.57646 24.2738 6.50982 24.4811 6.5082L29.4736 6.5007L31.0631 1.7262C31.1287 1.52951 31.2545 1.35845 31.4228 1.23723C31.591 1.11601 31.793 1.05078 32.0004 1.05078C32.2077 1.05078 32.4098 1.11601 32.578 1.23723C32.7462 1.35845 32.872 1.52951 32.9376 1.7262L34.5001 6.5007L39.5181 6.5082C39.7257 6.50937 39.9276 6.57592 40.0952 6.6984C40.2628 6.82087 40.3875 6.99304 40.4517 7.19045C40.5159 7.38786 40.5162 7.60047 40.4526 7.79807C40.3891 7.99567 40.2649 8.16822 40.0976 8.2912L36.0666 11.1317L37.5836 16.0277C37.6467 16.2252 37.6458 16.4375 37.5812 16.6345C37.5166 16.8314 37.3914 17.003 37.2236 17.1247C37.0554 17.248 36.8522 17.3144 36.6436 17.3142Z" fill="#FFAC33"/>
<path d="M59.6436 17.3142C59.4416 17.3142 59.2406 17.2522 59.0676 17.1287L55.0001 14.2117L50.9326 17.1287C50.7641 17.2499 50.5616 17.3148 50.354 17.3141C50.1464 17.3134 49.9443 17.2471 49.7766 17.1247C49.6087 17.0031 49.4835 16.8315 49.4188 16.6346C49.354 16.4376 49.3531 16.2252 49.4161 16.0277L50.9331 11.1317L46.9021 8.2912C46.7351 8.16791 46.611 7.99522 46.5475 7.79755C46.484 7.59987 46.4842 7.38723 46.5481 7.1897C46.6127 6.99273 46.7375 6.821 46.9049 6.69873C47.0723 6.57646 47.2738 6.50982 47.4811 6.5082L52.4736 6.5007L54.0631 1.7262C54.1287 1.52951 54.2545 1.35845 54.4228 1.23723C54.591 1.11601 54.793 1.05078 55.0004 1.05078C55.2077 1.05078 55.4098 1.11601 55.578 1.23723C55.7462 1.35845 55.872 1.52951 55.9376 1.7262L57.5001 6.5007L62.5181 6.5082C62.7257 6.50937 62.9276 6.57592 63.0952 6.6984C63.2628 6.82087 63.3875 6.99304 63.4517 7.19045C63.5159 7.38786 63.5162 7.60047 63.4526 7.79807C63.3891 7.99567 63.2649 8.16822 63.0976 8.2912L59.0666 11.1317L60.5836 16.0277C60.6467 16.2252 60.6458 16.4375 60.5812 16.6345C60.5166 16.8314 60.3914 17.003 60.2236 17.1247C60.0554 17.248 59.8522 17.3144 59.6436 17.3142Z" fill="#FFAC33"/>
<path d="M82.6436 17.3142C82.4416 17.3142 82.2406 17.2522 82.0676 17.1287L78.0001 14.2117L73.9326 17.1287C73.7641 17.2499 73.5616 17.3148 73.354 17.3141C73.1464 17.3134 72.9443 17.2471 72.7766 17.1247C72.6087 17.0031 72.4835 16.8315 72.4188 16.6346C72.354 16.4376 72.3531 16.2252 72.4161 16.0277L73.9331 11.1317L69.9021 8.2912C69.7351 8.16791 69.611 7.99522 69.5475 7.79755C69.484 7.59987 69.4842 7.38723 69.5481 7.1897C69.6127 6.99273 69.7375 6.821 69.9049 6.69873C70.0723 6.57646 70.2738 6.50982 70.4811 6.5082L75.4736 6.5007L77.0631 1.7262C77.1287 1.52951 77.2545 1.35845 77.4228 1.23723C77.591 1.11601 77.793 1.05078 78.0004 1.05078C78.2077 1.05078 78.4098 1.11601 78.578 1.23723C78.7462 1.35845 78.872 1.52951 78.9376 1.7262L80.5001 6.5007L85.5181 6.5082C85.7257 6.50937 85.9276 6.57592 86.0952 6.6984C86.2628 6.82087 86.3875 6.99304 86.4517 7.19045C86.5159 7.38786 86.5162 7.60047 86.4526 7.79807C86.3891 7.99567 86.2649 8.16822 86.0976 8.2912L82.0666 11.1317L83.5836 16.0277C83.6467 16.2252 83.6458 16.4375 83.5812 16.6345C83.5166 16.8314 83.3914 17.003 83.2236 17.1247C83.0554 17.248 82.8522 17.3144 82.6436 17.3142Z" fill="#FFAC33"/>
</svg>
