<svg width="20" height="20" viewBox="0 0 20 20" fill="none" xmlns="http://www.w3.org/2000/svg">
<path d="M19.3975 18.6032L14.5806 13.7864C15.9542 12.2067 16.6608 10.1554 16.5515 8.06496C16.4422 5.97447 15.5255 4.00809 13.9946 2.58032C12.4638 1.15255 10.4384 0.374929 8.34534 0.411382C6.25232 0.447835 4.25521 1.29551 2.775 2.77573C1.29478 4.25594 0.447103 6.25305 0.41065 8.34608C0.374197 10.4391 1.15182 12.4645 2.57959 13.9954C4.00736 15.5262 5.97374 16.4429 8.06423 16.5523C10.1547 16.6616 12.206 15.955 13.7856 14.5814L18.6025 19.3982C18.7091 19.4976 18.8502 19.5517 18.9959 19.5491C19.1416 19.5465 19.2807 19.4875 19.3837 19.3845C19.4868 19.2814 19.5458 19.1424 19.5484 18.9966C19.551 18.8509 19.4969 18.7099 19.3975 18.6032ZM1.5625 8.50074C1.5625 7.12863 1.96938 5.78733 2.73168 4.64647C3.49399 3.5056 4.57748 2.61641 5.84514 2.09132C7.1128 1.56624 8.5077 1.42885 9.85344 1.69654C11.1992 1.96422 12.4353 2.62496 13.4056 3.59518C14.3758 4.56541 15.0365 5.80155 15.3042 7.1473C15.5719 8.49304 15.4345 9.88794 14.9094 11.1556C14.3843 12.4233 13.4951 13.5068 12.3543 14.2691C11.2134 15.0314 9.87211 15.4382 8.5 15.4382C6.66075 15.436 4.89747 14.7044 3.59692 13.4038C2.29637 12.1033 1.56474 10.34 1.5625 8.50074Z" fill="#2E8CFE"/>
</svg>
