<svg width="24" height="24" viewBox="0 0 24 24" fill="none" xmlns="http://www.w3.org/2000/svg">
<g clip-path="url(#clip0_346_14568)">
<path d="M20.4605 3.48756C19.359 2.37806 18.048 1.49844 16.6037 0.899755C15.1594 0.301071 13.6105 -0.00474668 12.047 5.56939e-05C5.49355 5.56939e-05 0.159547 5.33406 0.159547 11.8921C0.159547 13.9876 0.708547 16.0366 1.74805 17.8366L0.0605469 24.0001L6.36505 22.3456C8.1073 23.2967 10.0606 23.7949 12.0455 23.7946H12.05C18.6035 23.7946 23.942 18.4606 23.942 11.9026C23.945 10.3398 23.6387 8.79184 23.041 7.3479C22.4432 5.90395 21.5657 4.5925 20.459 3.48906L20.4605 3.48756ZM12.05 21.7876C10.2789 21.7866 8.54053 21.3106 7.01605 20.4091L6.65455 20.1931L2.91355 21.1726L3.91255 17.5261L3.67855 17.1511C2.68541 15.5771 2.16048 13.7531 2.16505 11.8921C2.16862 9.27031 3.212 6.75704 5.06627 4.9036C6.92055 3.05017 9.4343 2.00794 12.056 2.00556C14.6945 2.00556 17.18 3.03756 19.0445 4.90206C19.9649 5.81864 20.6944 6.90862 21.1908 8.10895C21.6872 9.30928 21.9407 10.5961 21.9365 11.8951C21.932 17.3506 17.498 21.7876 12.05 21.7876ZM17.4695 14.3821C17.174 14.2321 15.7115 13.5151 15.44 13.4161C15.1685 13.3171 14.9705 13.2661 14.7695 13.5661C14.573 13.8616 14.0015 14.5321 13.8275 14.7331C13.6535 14.9296 13.481 14.9581 13.1855 14.8081C12.89 14.6581 11.9285 14.3446 10.7945 13.3321C9.91255 12.5446 9.31405 11.5696 9.14005 11.2741C8.96605 10.9786 9.12055 10.8151 9.27205 10.6696C9.40855 10.5376 9.56755 10.3231 9.71755 10.1491C9.86755 9.97506 9.91405 9.85356 10.013 9.65256C10.112 9.45606 10.064 9.28206 9.98905 9.13206C9.91405 8.98206 9.31855 7.51956 9.07555 6.92406C8.83705 6.34206 8.58805 6.42306 8.40505 6.41256C8.23105 6.40356 8.03455 6.40356 7.83805 6.40356C7.64155 6.40356 7.31755 6.47856 7.04605 6.77406C6.77455 7.06956 6.00505 7.79106 6.00505 9.25356C6.00505 10.7161 7.06855 12.1276 7.21855 12.3286C7.36855 12.5251 9.31405 15.5296 12.2945 16.8151C13.0025 17.1196 13.556 17.3026 13.9865 17.4436C14.699 17.6686 15.3455 17.6356 15.857 17.5606C16.4285 17.4766 17.615 16.8436 17.864 16.1491C18.113 15.4546 18.113 14.8606 18.038 14.7376C17.9675 14.6056 17.771 14.5321 17.471 14.3806L17.4695 14.3821Z" fill="white"/>
</g>
<defs>
<clipPath id="clip0_346_14568">
<rect width="24" height="24" fill="white"/>
</clipPath>
</defs>
</svg>
