<svg width="89" height="89" viewBox="0 0 89 89" fill="none" xmlns="http://www.w3.org/2000/svg">
<path d="M0 0C29.2591 0 58.5183 0 88.664 0C88.664 29.2281 88.664 58.4562 88.664 88.57C59.4049 88.57 30.1458 88.57 0 88.57C0 59.3419 0 30.1138 0 0ZM0.435696 0.435233C0.431202 14.8653 0.426709 29.2953 0.42208 44.1626C0.420097 48.7278 0.418113 53.2929 0.41607 57.9965C0.415342 62.0699 0.415342 62.0699 0.414903 66.1433C0.414699 67.9651 0.413897 69.7869 0.412696 71.6087C0.411315 73.707 0.410678 75.8053 0.410982 77.9036C0.411114 78.9782 0.410897 80.0528 0.409725 81.1275C0.408674 82.0973 0.408606 83.0671 0.409357 84.0369C0.409451 84.3893 0.409168 84.7417 0.40849 85.0941C0.407627 85.5708 0.40808 86.0474 0.40889 86.5241C0.408807 86.7897 0.408724 87.0554 0.408639 87.3291C0.368614 87.899 0.368614 87.899 0.653543 88.1347C1.11797 88.156 1.58312 88.1616 2.04804 88.1615C2.1962 88.1617 2.34437 88.162 2.49702 88.1623C2.99949 88.1628 3.50195 88.1619 4.00442 88.1609C4.36496 88.161 4.7255 88.1612 5.08604 88.1614C6.08362 88.1619 7.08121 88.1611 8.07879 88.16C9.1685 88.159 10.2582 88.1593 11.3479 88.1595C13.4661 88.1596 15.5842 88.1586 17.7024 88.1572C20.1509 88.1557 22.5995 88.1555 25.048 88.1553C31.5169 88.1542 37.9857 88.1511 44.4546 88.1483C58.8999 88.1438 73.3453 88.1393 88.2283 88.1347C88.2283 59.1939 88.2283 30.2531 88.2283 0.435233C59.2568 0.435233 30.2852 0.435233 0.435696 0.435233Z" fill="#FEFEFE"/>
</svg>
